<mxfile host="app.diagrams.net" modified="2023-06-10T21:13:54.897Z" agent="Mozilla/5.0 (Macintosh; Intel Mac OS X 10_15_7) AppleWebKit/537.36 (KHTML, like Gecko) Chrome/113.0.0.0 Safari/537.36" etag="CCvYaC32NdMZRkcw4y_W" version="21.3.8" type="github">
  <diagram name="Page-1" id="mjCCxj_swEP4KvGxpKAS">
    <mxGraphModel dx="794" dy="1165" grid="1" gridSize="10" guides="1" tooltips="1" connect="1" arrows="1" fold="1" page="1" pageScale="1" pageWidth="1169" pageHeight="827" math="0" shadow="0">
      <root>
        <mxCell id="0" />
        <mxCell id="1" parent="0" />
        <mxCell id="wo0ciTgMhSi1uJN295z3-8" value="TL-SG2218 &lt;br&gt;(16 ports)" style="vsdxID=5;fillColor=none;gradientColor=none;image;aspect=fixed;image=data:image/png,iVBORw0KGgoAAAANSUhEUgAAAhMAAAFbCAIAAADgIpvvAABZ+ElEQVR4nO2deXwTdf7/3580V+8kPZOWNi1FLkEO5UYqoBRQEV0PdJWKB6yru3iLXPHYZfe3+91F16OASlHw1nXX3fVYj3qhyHIfpS1tAy2UUlrKTekxvz8+bTpJJskkmUw+mbyfDx9xZjLzek+myfvF5/P+zGcIx3GAIAiCIKJRhfsEEEQUhBBCSLjPAkEQAACCbQ6EcahhPPPMM3Rt6dIl+KVFkPCCzoEwDSHk2Wefdd++ZAn6B4KEDXQOhFE8eEZvl9XixYsBAL/ACCI/6BwIcxBCfve734ncefHixfgdRhCZQedA2MKXbQiXyZ988kn8JiOIbKBzIKxACPn9738fjAL6B4LIAzoHEn5EewYBAO9DcxctWoRfaQQJNegcSDihfU+///3vxbiCSEkAWLToCfxiI0joQOdAwgYhZMWKFX4dAf64yxNPoH8gSEhA50DCgJBnSNnmcOg8/vjjgCN3EURq0DkQWSGE/OEPfwj4aAjIXR5//HH8niOIhKBzIDJBSxqebSMkbQ4+jz32GH7bEUQS0DkQOSCE/PGPfwxeBoJ2F/QPBAkedA4ktIj2DEnaHKQnqLedHn30UcDiB4IEAToHEip4niGfK4jXefTRR/DLjyCBgc6BSA8tafy///f/xB/Rc2Cwkf3VeeQR9A8E8Rt0DkRiCCHOnhE2VxCv8/DDD+MPAUHEg86BSAYh5E9/+lNgh/YoBHsKAeugeSCIeNA5EAnw6hnhdwXxOg899BD+IhDEJ+gcSLAQQv785z8HqdEjFey5SKFDHnroQfxdIIgX0DmQwBHnGWy5Qu+SV50HH3wQcOQugngAnQMJhB7PiEhXEK/z4IML8QeCIO6gcyD+QUfc/t///Z/4I3oODCos7wTk1lm4EP0DQZxA50D8gBDi7BkR7wridX7729/ijwVBKOgciCgIIX/5y18COI6nEFR8FnR++9vfAhY/EASdA/GJZ89gIpvLr/Ob3/wGfzVIlIPOgXiEljT++te/BqPBUwvqXFjSIQDwm988gL8dJGpB50CEIYT48gymsrlUOk5H+tR54AH0DyQaQedAXCGE/PWvK3mrQYmxpOOfK4jUeeCB+wGLH0iUgc6B9EIIWblypfjdeQcGFVYKnZC4gnid+++/H39KSPSAzoF042wb6AqB6Pz617/GHxQSDaBzIEAIee655wI4jqcQeHDnM1GCDvoHonjQOaIaz56BriBWR1Dqvvvuw18WomDQOaIUOuL2+eefD1jAWS3wE2FZJ1Cp7mPuu+9X+PtCFAk6RzRCCPHqGUxnc0ZcQbzOr36F/oEoDXSO6IIQ8vzzf+OtBq7kLMuWTqBSfruCSJ1f/WoB4MhdREGgc0QLhJC//e1vvvcDQFcIkc6CBQvw54YoA3QO5UNLGj22ga4QZp358+fjjw6JdNA5FA4h5IUXXvD3IGeFwIO7nYwEIsrQQf9AIhp0DsXiwTPQFVjRuffeewGLH0hkgs6hQAghL7zwIroCwzq9B9x77z34G0QiDnQORUFLGi+++KKXXdwOCSSOUGjU8SjiU+eee9A/kEgCnUM5EEJefPEl5y2ByAgpo45HEQl17rnnbvw9IhEBOocSIIS89NJLvvdjKwuzphNaVxCpc/fddwMWPxDmQeeIbHiewVQWZk2HCVcQr3PXXXfhDxNhGXSOCIYQ8vLLL/t1hJBIIJFZ0okwVxCvc9dd8/DnibAJOkdEIuQZTGVzqXSYy+Yy68ybNw+w8wphD3SOCIMQ8vLLJYCuoHAdp73nzbsTf6cIU6BzRAx0xG1JSYmn94UOCSSOFDpMZWHWdDzu7V3nzjvRPxBWQOeIDAghJSWrnLcEIiOkLIEI6ngXkVDnzjuL8TeLhB10DtYhhKxatcr3fugKIdcJuSuI1CkuLgYsfiBhBZ2DXXiega4Qah1WXMGnjkNq7ty5+ONFwgU6B4vQksbq1avFH+FBx+/IStSJGFcI4PrMnXsH/oQR+UHnYA5CiLNnMJWFWdNhLZvL1+bgc8cd6B+IrKBzMAQhZPXqNRDx2VwqnYjJ5izo3HHH7YDFD0Qu0DmYgBCyZs0aT296OMTvICzpMJ2Fw63jY1cvUrfffjv+ohEZQOcIP4SQNWtecd7it4YH5bDoMJWFWdPxrxsqMKnbb/8l/q6RkILOEU4IIa+88orPvTwc63c0KXSYysKs6UjlCoG3Ofj88pfoH0ioQOcIDz2ega4QKTpyuILkVfTbbrsNf+BIKEDnkBs64vbVV18Vf4QHHf/Cej4f1IlIVxCvc9ttt+LPHJEWdA5ZIYQ4ewa6Qqh1WHMFaXqifEq569x6K/oHIhnoHDJBCHn11dcgsrMwazqR5ArhaHO47nfrrXMAR+4iUoDOEXIIIa+99prgO54P8S+CEnVYy+astTkC15kzZw7+6pEgQecIIbSk8dpra503+qfhWTxydSIpm7Om44+Ut/3mzLkFf/tIwKBzhApCyNq1a73v4vlY/0KxpBNJWVh2Hd/7ydDm4HPLLegfSCCgc0gPIWTt2lLP7/onxpIOU1mYNR2ZSt/+SInSufnmmwGLH4ifoHNICSGktLRU/O6edfwLK4UOU1mYNR2ZUrmEUv7q3HzzTZgKEPGgc0gDLWnwbANdIVJ0wl+yDpmU3zo33YT+gYgCnUMCCCGlpesAXYE5HXSFQERuuulGTAuId9A5goIQsm7dOsF3PB/ih7zX0FGuw1QK9q0joVQwriBS58YbbwQsfiCeQecIEELIunWvu230Q8CreJTrRJgryN7mkMqlfOx0442/wPyACILOEQiEkNdfd7UN/vtej/UjjhJ1WMvmrLU55NMRJ0V+8YsbMEsgLqBz+Ach5PXX3/D8rh9KXqNEqE6EZXPWdERLSeYKInVuuOEGwM4rhAc6h1gIIW+84dEzXPb1quNHTJZ0IiwLs1ZUkF1Kep0bbrge0wVCQefwDR1x22MbTGVzqXSYysKs6chX+hatFk6d669H/0DQOXxBCHnjjfWArqBMHVm7j8SpMeUuHt++/vrZmDqiGXQOjxBC1q9f777Z6yF+yEuhw1QWZk0HXUECES86s2fPBix+RCvoHAIQQtav3+C20Q8Br+ISiES9DmulZgmlmHAF8TqzZ1+HOSQKQedwgpY0NmxwtQ3+Ll4PFxvH12lEsw5rrsBam0M+VxCvc911szCTRBXoHL0QQjZseNPzu2JlfEWJZp2IdAUZT4lFVxCvM2sW+ke0gM4BAEAIefNNj57B39GXjtiAStRRqitEdjaXWWfWrGsBix9RQLQ7B88zmMrCrOlEtSugu/irc+2110Z5YlE8Ue0chJA333wLIjWbS6WDrhCsiLRSEaXj7b1rr70mmtOLsolS5yCEvPXWWy7bfB0iVpslHXSFYEVE6EgoxZSONK55zTXoHwok6pyDEPLWW2+7bRR7tC9xOXXQFYIVkVBHQqkIcgWROtdcczVg8UNZRJFz0BG3b7/tahuO930dLjaOFDroCsGKSKgjoZTyXEG8ztVXz4yebKN4osU5CCFvv/2O53fFyviKIoGIhDripJjSYSoFSyulZFcQrzNzJvqHElC+cxBC3nnHo2fwd/SlIyqaiPORRkecFFM6TKVgP3QklGIzm8usM3PmDMDOqwhHyc7B8wx0hVDrRKoryNXmYD2by68zY8YMBScfxaNM56AljXfeeRfQFSTQYS2bs9bmQB0vOj5EZsyYrsgUpHgU6ByEkHfffZe/QcQhooTFRY8snUjN5qzp+JJSpI4fIt51pk8vUl4iUjaKcg5CyLvvvue2UdSh4vQjSydSszBrRQUJpSJHRzJXEKkwfXoRYPEjclCIcxBC3nvP1TMcb4pT8L0LSzpMZWHWdKRKwRJKMaUjtyuI1ykqmqaMjKR4It45aEnjvffe97qPbxlxseTRYSoLs6YThhQsoVQ0u4J4nWnT0D9YJ7KdgxDy/vvePIPuJU7K9y5S6DCVhVnTQVfwrqMEVxCvM23aVRGdnZRNpDpHj2egK0SKDlMpWFopdIVQ6Vx11VWAxQ8miTznoN1T77//Qc+q7yPEyUogEq06TKVg/3QklGI8C7Oq41vkqquujLg0pXgizDkIIR988AF/g7ijfLwvOnoU6kSwK8jS5mAqC7Om45+Id50rr5waWclK2USMcxBCPvjgQ6HtPo4TrR+FOqxlc9baHKjjRUdKVxDJlVdOBey8YoMIcA5CyIcfCngGY1mYNZ0Izuas6XiVUqROGFxBvM7UqVPYz1qKh2nnoCWNDz/8u9d9fGiIjhVBOhGchVkrKkgoFSE6TLuCeJ0pU9A/wgm7zkEI+fvfvXkGY9lcKh2msjBrOugK3nUU4gridaZMmcxsBlM2LDoHIeTvf/9I9M4+3mdJh6kszJpOeFKwhFLoCmHRmTx5MmDxQ3bYcg4Xz0BXUIoOuoJ3HVayMJM6okQmT76CqVSmeFhxDlrS+OijjxwbRB/o430pdJjKwqzpMJWCpZVCVwi1jt8i3nWuuKKQkYSmeJhwDkLIRx/9Q2i7j+NE60sgEpU6TKVgv3UklIqELMyajsSuIJ4r0D9CT5idgxDyj38IeAa6ArpCoDpSSTGVhVnTCZsriNQpLJwEWPwIJWFzDkLIP/7xT1/7eHvTn1jRpsNaNmetzYE6XnRYdwXxOpMmTULzCBHhcQ5CyD//6cU2mMrCrOlEdjZnTcezlCJ1wp/N5deZNOly9A/Jkds5CCH//OfHonf29qY/QSNFJ7KzMGtFBQmlIkEnkrK57Drk8ssnon9IiHzO4eIZkZPNpdJhKguzpoOu4F2HqSzMmo5YkcsvnwhY/JAIOZyDjrj9+GNqG0xlc6l0mMrCrOmELQVLKIWuECadQESEpHpXJk6cgOYRPCF3DkLIxx//S2i7t4P80Q+1DlNZmDUddAXvOkxlYdZ0pHcF8aB/BEkInYMQ8q9/uXsGukKk6DCVgqWVQlcItU44XUGkzoQJ4wE7rwIlJM5BCPnXv/7tax9vb/oTSwKR6NNhKgUHoiOhFPNZmDWdCHAF8Trjx49H8wgAiZ2DljT+/W8vtoGugK4QmI5UUkxlYdZ0mMjm8uuMHz8O/cMvpHQOQsi///0f0Tt7fMfPoFGlw1o2Z63NgTpedCIsm8urQwBg3Lix6B8ikcY5XDwjQrIwazoRn81Z0/EgpUgdprIwazp+iIwbNxaw+CGCYJ2DEPKf/1DPYCoLs6YT8VmYtaKChFLM6zCVhVnTCVzEi87YsWPQPLwTuHPQksZ//vOJ0FseD/IzREToMJWFWdNBV/Cuw1QWZk0nJK4gHvQPLwToHISQTz5x8QymsrlUOkxlYdZ0wpmCJZRCVwiHTphdQbzOmDGj0T/c8ds5CCGffPKpr308vuNnrJDqMJWFWdNBV/Cuw1QWZk0nYlxBpM7o0aMBix/O+OEctHvq00892Qa6QqToMJWCpZVCVwi1DivZXH6d0aNHoXk4EOschJBPP/1MrCi6Qth0mErBAepIKIWu4I9O5GVzGXW6/zdq1GXoHyDGOVw8A10hfDpKcIVQtjmYysKs6TCVhVnT8U9k1KjLIOo7r7w5ByHks8+oZ6ArhFqHtWzOWpuDqSzMmg5TWZg1naBEvOhcdtml0Wwews5BSxqfffa50FvCOn4HjiIdJWRz1nSE1BSpw1QWZk0nVK4gnqj1DwHnIIR8/jnfM5jKwqzpKCELM1hUcFNjKptLpcNUFmZNJ/yuIF7n0ktHRpt/ODkHIeTzz//r44AIyOZS6TCVhVnTQVfwrsNUFmZNJ5JcQaTOyJEjIZqKH93OQT0jErK5VDpMZWHWdMKfgiWUQleQV4ehbC6/zsiRI6LEPAjHcbQSrlLFiDoAXSGydcKfgiWUQleQVycis7lcOr0iI0YMV7x/dDvH6tWr9frYrCyL0AdGV4gUHaZScFA6EkqxmoVZ02EqC7OmE4iIsv1DTf/Hcdz58+eqa2qMBqPJZPI6VFd4s7+Bmc/CrOmEP5ujK0SsDlNZmDWdYEU86Wzbtp0OUlWkf6gdSxzHEYDjrcdbW49nms1xsbE976ArhFon/Nk8NDpSSTGVhVnTYSoLs6YTKlcQybZt2wGAkJA8tDu8dPdWlaxaRQCAWiQhBECt0WRnZatUKtcDWM/CrOmwls3Dr+MshTpedJjKwqzphNkV/NUZNuwSJflHj3OUlPBco/c1NjbWYsnyfz5dgW2BnBzrOuHPwqzpOEuhjhcdprIwazoR5gridS65ZKgy/KOnzgEAHEdbVYQQDoAAcADnzp2rrqlOS01NSkruGb/rLsJUNpdKJ/xZmGEdqbJMsFKs6jCVhVnTYS6by6mzY8dOZRQ/euocHAcO2+A4AsCzEa7p2LGWlhaLJUur1YoRRVeIZB10Be86TGVh1nQiMpvLpdMtsnPnLroa0ebR7Q4vv/yya0eV0KtWp8vOyiKumRhdIVJ0mEjBEkqhK8iow1QWZk0nQJGhQ4dEqH/09lY5WhhACHh4vdDWVltbGx+fYDabu7q6PImiK4RDh4kULKEUuoKMOkxlYdZ0JBDxJLtr1+4I7bzq7a1ydE8JFjz4r2fOnN5fvT8tNdVgMHR1daErhF6HqRQcrI6EUkxmYdZ0mMrCrOmE0BVEsmvXbojAzqtuh3jppZfAvXfKV/+VRq22WLLUarWrKLqCHzpMZHN0hcjUYSoLs6YTflfwlyFDLo4U/+h2jhdffFG8YXS/9izExcaazZZAYrObzaXSYSKbh0BHKimmsjBrOkxlYdZ0Is8VxOtffPFg9v2Ddw+5o0vKe8Gj94Du3c6eO1dTU200mvjTljCczaXSYS2bM6EDjGZh1nSYysKs6SjZFcSwe/ce9osfvfNWEeeRuB4LHhznsht9PX685Xjr8cyMjPj4BJGx0RUiSwcYzcKs6TCVhVnTiXZXEBliz569dCOz5tGd/F944QV67p5KHTf+4hccx3Ec9/ePPvLSfwUAGo0my5KlVvPnbEdXiBQdqbKMBFJM6jCVhVnTQVcISYjBgwcx6B+uo3Jd2xk9rYrDhw9XVVVNnDhxxPDhW7dtc+rRcsBxQEhHe/uBgwfEFD/QFeTVQVfwrsNUFmZNB10hbCH27i0vL983aNBApvzD6R7y7jvJnTumbrnppnfffffMmTNNTU0ffvjhxIkT+cd76r+ixQ9TSorJaAzm87KahVnTYSUFSyiFriCXDrpCBITYu7ecqeKH8yzrQlOP7N6z58YbbwSA7du3d39OD6UO99eW5uaWlhZzpjkuLs49NqtZmDUdVlKwhFLoCnLpoCsoJ8TeveVUlgXz4FXInVsbjibI7t279+zePXv2bAC4/vrrDxw44KVOTtxuGyQADUcaNBpNdlZ2TIyoB9byYTWbS6XDVAqWQEdCKfayMGs66ArRGKK8fN++fRUDBw4Ir3+4PtnJUb1waYK0trZyAN9++23riRPAcX1ycurq6lwH7wJ4mrako73dfsCeEB+fmWkWGrnLVDaXSoeVbI6uEIE66AoYwhvl5fvC23nFq5DzWhvuTZD6Q4eA45qamgCAEJKamlpXV+d+rPf+q9NnzlRX709NSzMkG0R+YHQFeXWkkmIqC7Omg66AISQIsW9fhWNZfv8QqpALFTwqKyr4RtDe3s4BXDZy5P+2bBFT8OC/HmtqamlpybJYdDqd41IE8xnQFeTRARazMGs66AoYQtYQDv+Q2Ty6U/rK554jPSfNv43D00Zvr2L2AgBC9DqdJStLRVwfWOt0fugKsuj0SKGOFx10BQzBdIgBA/rL5h8en+zkvQni8npVUdEBu72ysjI7O/tQfb1gqcN9CpPzbW21tbVJiYkZGZnBfGDWsjCTOtJ8ZdnL5lLpoCtgiIgPUVFRKVvnlduo3J6ihfepR1w8YNu2bUmJiRyAWq0WU/Dgi5w8derUqVMZmZmJCYnuH5jJLMyaDrqCdx10BQwRLSEqKipBls4r4Qq5p9aGp7eONjYePXo0PS1Nr9eLv9uD/9p45EiLpsVisWg0Gn8/A5PZXCodhlKwhFLoCiHVxxDRFsIlSmVlVVXV/osu6hc6/+jO3n/961991jbEFDxi9frzbW0iCx49CdZpa1xsrMVicaQVJrO5VDoMpWAJpdAVQqqPITCEX4TIP5zmrXJtUvhqgrh3PZ0/fx6gp0biWPDwyvVcEv5tg2fPnauuqTEajCkpKSI/A7qCPDoSSqErYAgMIU+IysqqUBQ/nJ4mKzjdociCh+BzZ/0qePBfj7ceP956PDMjMzGRztmOrhBaHQml0BUwBIaQJ4TIKFVV+0Hq4kd39v7LX/4CXrqn+F1MXvqgfPZP+f+q0WgtWRaN2lvxA11BNil0BQyBISI6RL9+BZL4h/O8Vc49UYKtDeEmiPcWhtBkVpxLJvNwbHv7hQMHDsTGxmZnZQfzOVnL5qzpALoChsAQCgrhKcr+/dWSdF4Jjcr1MOO6l4KH93oG/RAeSx0eCh780OfOndu/vyolJZX/wFreBQKmsjBrOoCugCEwhIJCBBll//5qh0LA/iHQ5vBUDPdS8PDWEAmu4MF3r+aW5uaWZovZLP6BtQ5Yy+aMdx+FVFkefQyBITCEF6qrayCI4gevzdGTybzMuC7YLhF/q3lgry4hDjc06HU6s8Wijuk+efayuVQ66AoYAkNgiBAGqq6uqamp7ds331//6HUOLwbgx5gr/wseroiwkLa2NrvdnhCfYLFYRH5gdIVI0ccQGAJDyByourrG384rt94qTzdzhKzg4e4uIGQt7oZ0+szpyqrK9LR0o9EgyWAzxl1BGd9+DIEhMASDUWpqasGfzivheavoOiMFD8cWdykgpKnpaHNLc5YlS6/Xe71egK6AITAEhpA/RARFqampra215+fn+fQP4VG5nrzBexNEmoKHZ4MRKLcAcABdnZ119XVxsXFmszmAB9Y6QFfAEBgCQ0RtFEeI2lq73X4gL8/qxT9c2xx0yVNPlB9NEH8KHk7wHkwrcggWDXT23NmammqjyZSamgpunzdCXUF5X0oMgSEiJYQ8UZj9ILW1di/Fj27n0Gq1Fy5coHt4KniIHHMVQMHDk7uAkLW4GxK/DXT8+PHjx4+bMzOTkpIDHqpMQVfAEBhCqSHkiRLpH6S21g4eih/E4RZffPHF1q1b6UkQ0j2VSO8q/5W3LrjR51tBvrpuEHpLq9VmWbI8zdmOroAhMIRSQ8gTRTEfRGQUqzWX7x9OZkIIeeutt+rr60HQPHy5gk+b8f3q1RUCsJC42LisrCxprz5+KTEEhghXCHmiKCNEKAI5/MO1GULDrFq16tSpUyCQ2ANvgni3Cm+7eTrKbbvLRseiyWRKTUkVc10U841RxgfBEFEVQp4oygghcyAHarU6OzsL3J3DcUL/+9//fvzxx7a2Nhcz8NcwvJmCX80Rt1fwZB5urRC6mpmZmZSYFIqryb9uIdWXLQqGwBCRGEUZIWQOJBKVSpWcnJyUlPjgwgfBk3NQCCGffPLJnr17PRqAoDd4MY/grEKkT3h5S6PR9Mnuo1bz7pwXjWK+lMr4IBiCnRDyRFFGCJkDSUVCQrzRaFSpVNQ2wLtzdO9ByNvvvHOovl58ayOotoWnd7we5WVn97di4+Jc5mxXzJdSGR8EQ7ATQp4oygghWxQ50et1RqNRq9U6PIMi6l5zejnWrFlz6tQpYW8Q5yjeDcP3bs7796657exxI++tlJSUFJPYB9aKuT6hRhm/LgzBTgh5oigjhGxR2EGtVhuNxri4WBfPoPgxxS4hZOPGjdu2bWu7cMF3a8Mt7/s0m4BfwXOLpHfRw2p2VnZcXJz3Ty3y+gSMYr73GIKdEPJEUUYI2aJECiqVKjEx0WBIBoAHHxSwDfDLOboPIOTTTz8tLy8Hnw0GL+YhhWEIO4SbkQi+xV/V6fXZWdnBTFvi/XKFQlb+KBiCnRDyRFFGCNmiKIaEhPjk5GS1Wv3Qgw952S3Ax3oQQt577736Q4e8u0KAVuH9fa/HetlZ8C3HQkJCgsVs8fciBHDp/EUZP2AMwVQUZYSQLUqUoNfrkpOT9Xq9d8+gBOgcAEAI2bNnz7fffus0cpfnE351TPnrMcKbfe7mstF5FQDS09ONBiNv9pMQopifFoZgKooyQsgWBQEAtVqdnJyckBAvxjMogTtH9/GE/Pjjj5s2bRLf2vDLUfzus/LylgjzIAAarTYzIzM2NjbIyxLM4exEwRBMRVFGCNmiIGKgd2moVKqHHhJrGxC8c3SrEPLPjz+urakRzupBtzACsRDxvVVCnVdxsXEWi0WlUgl+2OCvmE+UkSOUEUKeKMoIIVsUJHji4mKNRqNarX74oYf9PVYa54Cer8uGDRuam5vBzRX8tgoxe3ndw8vOgm85LfR89U1GU1pamiTXx+VChRplpCG8VkyFkC0KIjFufzStVms0GPR6fQCe0S0plXN0yxGybdu2TZs2XbhwgXgyAA/pPrBeLOHNPndz2ei86rJzZkZmUpKoaUsU8+tVRgh5oigjhGxREInx84+mUqmMRmNCfHzAntEdVlrn6BYl5Jtvvtmxc6f31kbo+qxcNwi+5c+qRqPJzsrWarWSXyv3S4ch2ImijBCyRUEkRuo/WmJioiE5WaVSPfxwULYBIXKObmlCPvzww0OHDgk6RGAtjMAtRHCjd89w3g4A8XHxnoofYq5GAEcxGAU/CFMhZIuCSIy8fzS9TpeSkqJWqx95+BFJBEPoHNDznS5dt+60+7QlIg1AzF5e9/Cys+BbTgsunVcAQIjRYHQpfigmQeAHYSqEbFEQiWHpj6ZWq1NMJr1eL5VnUELrHN0xCNm0adOOHTva29vBq3kI5//Aeqg8mIrgDp5WXXbm72CxWBITEiW8RFJJhTGEPFGUEUK2KIiURNRfrHte9MREaT2DIodzdEci5IsvvqioqPBmGKHrrfLS4HDZKPSuY5W/oNVqs7OyPT2w1mXnkKKYKMoIIVsUREqU9RdLiO+eF/2RR6S3DZDTObrjEfL3v/+9oaEBgmthBG4hvt4SWHXe7rJDXFxcdlZ26DKFYjKdMkLIFgWRkmj6i+l13fOiP/rIo6GLIrdzQM8P74033jh16pQfVuHzfb56wO0PfzyDv5Celm40GgO7FKFGGSlbMdcKkRj8i/XQPS96bGxIPYMSBufoDkzIzz//vHPnzvb2duGeq0CbI8Kbfe7mstF51WVnTzv0ye7jmLZEMZlOGSFki4JICf7FxNE9L3pyMgDIYBsQRufoDk/Il199VdlT/AhzwcNrg8OTl7gs6HS67KzswB5Y635xgheJhhCyRUGkBP9iEpEQ3z0v+qOPyuEZlDA7R/dJEPLuu++2tLRAKM1D0Am8vOVp1X3BsYNjS0JCQpYly/tHDu6a+UYZIWSLgkgJ/sVkQa/rnhf9sUcfkzk0E84BAISQffv2bdy48UJ7uw8DENzmssm7Au8VRLY/fHmGu3kAQEZ6RgDFDzGgKyBhA/9iDOCYRER+z6Cw4hwUQsjmzZu3bt0K3nM+8wUPxyfSarUWi0Wv0/t1EcTvHBjoCogw+BeLBOhdGiqVKly2Aaw5B4UQ8tlnn9nt9oguePA/TlxcnMVsiYmJQVdAwgb+xSIcjuPi4uJMRqNarX7ssbB5BoVF54CexLRhw4YzZ84EYhIemhd+W4jXVfcFwT4rx4LJaEpPTw/+soQadIXIA/9iEY7PPKzVak1Go16vf/yxx+U5Je8w6hwUQsjOXbu2btkiXPzwXuoIV8HDubXhsgAAZrM5OSlZ8MMGcanEgq4QeeBfLMIJMseqVCpDcnJSUhIjnkFh2jkohJCNGzfu2bMH3HO+/z1Ugj4hxi08mYf4PivHMp22RKfTSXiVXEIgkQH+xSKcUOfPpMREg8GgUqmYsg2ICOegEEL+9a9/NRw54nfPlYdX1w2+3nJaCLTgwV+Oi4vLzspSqWJEfnw/LhbCAvgXi3DCmBs5jtPr9WmpqWq1+vHH2fIMSsQ4B/Rkz7fefvvM6dNiSx1MFjz4y6kpqZI/sBYJOegKkUx4k57P6Gq1Oi01Va/XP/H4E/KcUgBEknNQCCFbtmzZs2dPb/HDe6nDU8HDS5+Vy2poCh785aysrKREUQ+sRUIOukIkw7greEelUiUlJRkNBpY9gxJ5zkEhhHzzzTf79++XoM9KcKMsBQ/+skajyemTI8MDa6MadIVIJqJdwScJCQkpJpNKpWLfNiBynYNCCPn3v/99pLExogse/E+UkJAQ0jnblQxes0hG2a7gHZ1Ol5qSotVqn3giAjyDEtnOAQCEkMrKym3btwsUP7y6QjAFD08W4r4gvuBBoX+OjIyMFFOKVJdICaArRDLhLTWHK7SYE1Cr1SkpKfFxcRHkGZSIdw4KIWTr1q17y8vbL1zw0cjgr3o1FY8bQ1nwAN5XLTc3Nz4uPuhrwzzoCpEMukJgqFSq5KSk5ORklUq16IlFEp6VPCjEOSiEkC++/LLu4EGpCh7e3SJ0fVaOP4per++T3cf7A2uZBl0hkkFXCBGJCQlGo1GtVkeiZ1AU5RzQk4L/8Y9/tBw/LkfBw2v9w/uCl2XgfXE5jjMYDBazhbniB2Ong/gFukJY0Ov1RqMxVq9ftChSPYOiNOegEEKqqqp+3ry5vb0dBG1CeKtkNXP3hcAKHvxli8ViNBiDvziiQFeIZKLWFVjIZp7OQaVSpaakJCYmRrpnUJTpHBRCyLZt23bs3Omt4CHCVHo3+tNJ1bvqtoP7zu7LIGQeGo2mT3Z2bGxccNclqKOR8IKuEInnYDQaDcnJKpXqyUVPSntK4ULJzkEhhHzy6adHGxsjuuDR+2fiuLj4+Jw+OTExQtOWoCtEMugKyjuH+Pj41JQUtVqtGM8AgBEjRijfOaAnHb///vtnzp4NpOwhuDGggodgn5WXZRAyD7qQkpJiNpuDvjaITKArRNs5qNXq9LS02NjYJ59Ujmfk5eVNmTKlb9++UeEcFELI3r17d+zY0d7RAbIXPNx3cN/HfRmE+qz4CxaLxWQyBXllkCBBV8AT4KNSqUwmkyE5WUmeYTAYpk6dOnLkSADgOC6KnINCCPnhhx+qa2q82YCXgof/nVShKHjwN2k0mtzcXL3ejwfWIuJBV8AT8AtDcrLJZFKpVIufXCz5KYWLyVMmjx8/PjY21nFNos45KISQzz7/3HvxA0CgMM5UwYO/KT4+Ps9qJSpVcBcmukBXwBOQkNjY2PT0dI1arSTPGDho4MyZM00mk8sVi1LngJ7U/OGHH/osfoCzE7BW8OAvpaelZWRmBnNZFAO6Ap6AbNB50ePj4xcvVo5nmM3mmTNn5ufnC17P6HUOCiFkx44d5fv2dbS3R3TBg7+Qk5NjMBiCui5sg64QnScQ9o9P4Z+GSqUyGAwpJhMAKMY29Hr9lClTxo8fD56vebQ7B4UQsnHjxpraWmC+4DF2zJgff/oJhAoe/C2xsbE5OTmSP7BWBtAVovMEwv7xKX6dRlJiYlpamkqlWrJ4SehOSWbGjhs7ZcoUfklDEHSOXgghn//3v01HjwbS4PBn1fuCl2UAGDN6NF3Y+OOP3Zs8N0CSkpJyc3NdFMIIukJ0nkDYPz5FwtOIjY1NS03V6XRK8oy8vLzrb7jevaQhCDqHE4SQ6urqXbt2CRY/wLt5hKbg4ck5OI6jjQ/w1XllsVhkeGAtukJ0nkDYPz4l1Kfh0Neo1SkpKUlJSUuWKMczDAbDDTfc4KmkIQg6hwCEkJ07d+7avZvBggffOeiCU+eV54W+ffsmJCQEdkHQFaLzBML+8eU5B5EhVCqV0WAwGo0qlUoxtqHX68eNGzd58mRC/PMCdA6PEEK++fbbQ4cOgYwFD599Vu7OQZd/+uknwYIHfyEhPr5PjusDa9EVovMEwv7x5TmHAEIIHpKclJSSkqLRaJYuWSrFeTHB8OHDZ8yc4bOkIQg6hzdovv7PJ5+caG31q+DhqcERfMFjzOjRJSUlCxYsKCkpWbp86TNPPTN//nz6R+QAfqL9Vz1/VPdhuxzHpaWlmc3mUBc/ojwtRvnHl+ccpHIF72i12oz09Li4OCV5hjXPOmPGDIvFEvCfSS3tCSkMelkJIdU1Ndu2bm3v6ACOA0I4jiOEcNR4CSEcB4R0vwVAAOhbjlWqBT2HOBRoiO4kTkX4W5yX+RiNxhUrVixcsGDp8qUAcO+999LtY0aP/mnTpu6TAehtgfK2NDU1NTU19cnONqUE+MDaKE+LUf7xZTiHwPQlNxKVSpWRnp6cnLx06VIAxy85sjEYDDNmzBg0aBAE93dE5/BNd50gP3/Lli2VVVUuqR96fMJhIb2+0nM830J6F5w9w2Eq4MEwnDYuXNjYWAEnYeGtCxYtXgTO5sEBbNq0iXM2j94FAA6grr6+sbHRmpcXGxvr/mHDRdjTYpR/fBnOgRFX8HlUamqqyWiMiYnpto3IR6/Xjx07dty4cYF1T7mAvVX+QQj58ssvm5qawlXwGDtmzHPPPQc2mw0AFi60fvQRANjt9hUrVtxz773Q021FfwGbNm0C4P0a3BY4jktISLBarcJztktK2L9p6AoMuoJsRiL+qMSEhIyMDI1Gs2zpsgCisMmw4cMmT55sNBql+g6gc/gNzeMff/zxmbNnAx5hFXDBo9s5KDYb2GylpaV2u10FcLS52cU56Oqmn38WLHjwN6SlplqysgK+JmH/FqEroCsEf4hGo7FYLPFxcUryjMzMzOkzpvs14lYM6BwBQgjZtXt3ZWVlB52zHTwPu/K66r7gfZDu2DFjSkpK2tra+CdjtVptNltxcfH9998Pbs7BcdzPmzd7bHjw1rP79ElxK36E/RuCrqAMVwj4U8gQS6VSpaelmUymZcuU4xl6vX769OkjRoyAEHyF0DmCghCyadMm+4EDLm0LMV1Y7gvuDRT3fRzOUVhYCGVlZQCgBzgPAAAq1f333bdmzRq6/6KlS1Y88+xdd93lGHn1888/07c8DdsFjtNotfn5+bJNW4KuEM2uwMhRKSZTWlpaTEyMkmzjiiuuGDt2rCQlDUHQOSSAEPLV118fa2qSoODhq8+KOgcAUPOg3uGAZvxFixapAe6/f0EMqFaWlDz7zO/mzZvnaIhs3rxZsOABvC0J8fH5+flBztmOroCuwOxR9JD4+PisrCytRqMkzxgwYMCMGTMkLGkIgmOrJICOeqqvr9++ffvZc+dcR+727CQ4Khc44UG6AsN2e77uCxYsAICSkhJqG+7+AQsX3g+t0Hq+E/SdHV0uZ3vZpZdyAP/bvJmOuHIdvwsAAKfPnNm5c2dGZmamhznb0RXQFWQIFLpYGo3GbDYnJSYuX7YcAIgihtwaDIbZs2fn5edxHBfq7ye2OaSEELJ7z56qqir+nO0gacFj3NixdIH+4VatWsWveeh0ura2NueRVwa7fXtjYyO/+EFfN//vf3wpT0Ow8vLykpKSpLpEPmHhC4muIEMgOWPxj4qJiUlJSclITweA5cuXB6DGIHq9vrCwcNy4cSDXLwidQ3oIIT///POBAwckKHi4Da9ycQ7KqlWr2trbQdWli9H1GonNBjabY58Fv/qVi3PQ1/9t2eJl2C5diNXr8/LyNM7TlgQAC182dAU2A8lzlNFgMJvNMTExivEMABgzZswVV1wRupKGIOgcIYFm+bJvvmlqapK24CHoHHR59erV99xzz5o1a1xGXoGtFKygKi6+d8ECh2esKy29Y+5ch39s2bLFpeDh3hBJSk62Wq2epi1h4YuErqCkQNLGio+Pz8jISIiPV5JnWK3W2bNnh7qkIQg6RwghhNTa7Tt27OgeuSvFHR7jxo41Go0EoLmlxRHIMXoKOI46RyFAmfPJ2Gy2I0eOrF27FgAWL13c1cURgN//7ve333EHPZ7juK1bt4KQZ/AX5Jmz3R10BSUFkjOWRqPJyMgwGY225bYADmcTg8FQNL1o4MCB4Urg6BwhhxCyZ8+e8n37wNkkXCzk66++AoDJU6aAe0OkZ08AGD9unNFoXFhcvP2IvezTspaWFnB2DgBYs2ZNZ3t7R1dXobN/0JFXjRUVAAB6PQCsXF2y4ncrbr/9dq5HZOvWrV46rxym0regIOA5291BV4jyQCE6KiYmJjU1NS01NSYmxsbruY1o9Hr9mDFjCgsLiZ/zoksLjq0KOfSvO3jw4I0bNzY0NICXWRF5h7hOaeW8w0qDYSFYobDQZDK18BoflLvvueeVNWtiAMpcuq0A2hYtWgkLFy5shdbzAHpwHXgFw4cPB47btm2b04grxxAs6k+EVO/fH5+QYLVa1WofXyF0hSgPJOdR/EOSk5OzLBatVqsYzwCAYcOGFRUV0ZJGeP/Rj20O+aBm8Mknn5w9dw6EOqm+/uqrKyZP9l7wGD9unMlo5ABg4UJYubK4uNhut5d9X9bc2OxocziKGa++8goAtLW1FxZe/k1ZmdZ55BWsXGmzWp+2HzxYf9DR5uA4ztF5tX37dnD8Gj00RNJSU80WS4jmbEdXUGSgUMeKjY3NslgSEhKU5BlWq7WoqMhsNjOSsdE55IYQUlVVVb5vHx25Cx46r8CDedDequ6fhM1mA6DmAQBl33x7rOkogOvsI6+++mpnZ2dXV5dGo7nQ1sb/e5eWlgJAcXGxTqe77Ze/BGfnoKs7tm/32XklOG2Jd9AVMJDkR8XExGRnZZlMpqeeeioAQTZJTk4uLCwcPnw4U7k6qJuEkQDgOK6goODaa67p27ev03bgtRh69nRZoDvYbGC1WkGlgqefBoBSAKvVCgDAdQFAqtu9e/Pmzbvnnns0Gs2dd96pdUwrogcAKC4uLi4uLi0tpcOxNqxfT9986803337rLbp8ybBh7g7W/f+e1fq6ur17954/f95xwj5xvywyHIKBZA4k51GZGRmDBw1Skm3odLpJkyYtWLCANdsAbHOEF0LIt999d+zYMd+DdHt2mDB+PAD87bnnbDbbMgAb/a+4uNhuX1dW1nTsWGpqKiFw9GhTrxXxurDWrl17oa1tkttt5yqA4rvuos7RWHeQ47qA4zJz826+5RaqcPr06erqaoeap86rhPh4a16ey5ztAXzHAvtaYiD2A4UiVkJCgjU3V6vVKsYzAKB///5FRUVhGXErBnSOMEO94dPPPjt39qyYQbrUOQDgOaPRWlpqt9tpzxXts5o2bdqiRYtoM4IANB49Cs7OwQGUrl1L+6wK+SOvVKp5d965Yf365saajtZ2Eht7nDuXBFpzbt7Nt9zCdw6PI694q6lpaRaLxdNHZjy1YaCAA8kZix6l1WqtubmJiYlK8oyMjIyioqK8vDyWkzOOrQozXPfYJbK3vLympqa9vb13PBXn4bmzFJuNljdsTz8NXV3UP6ZNmwYABoOBGklGejoH0NjYyI9YXFzMAawrLXWMvLJarYftBwFA1XbBkJR5lpzrJB3GduA6uSGDBzkOdAysSktJaTp2zHXkFW/1WFNTU1NTTk6OwWAQfxECuG4yHIWB2DwqJibGYjanp6c//dTToJSJp3Q6XVFR0bDhwyAI85YHdA4moN+SQQMHbtmy5WBdnctoXY4/SLeH3/zmN88//7zVarXb7QA2SmdnJwCsXLmS7tPtHxkZAORI4xF+xLlz53IAr69b19bWZrfbaaRzoNOr1Pq/PvMMPNa+sHVZfPp3X381aMjQ7mN6vGHIkCGtra1bt21zH63Lf3TtwYMHjzQ05OXna/2ctkR5ORQDSRsrIz3dYrHExMQ8/fTTirAMAIBJkyaNHj1a5klEAgZ7q5iDEPLd9983Nzc7VoHXZ5WZkZGXn6+OieE4rqSkpKOjo6urC4A88MD9JSUl8+fPT01NtdlsYDBAa+vTNtsdxcVgt9sBysrKjhw5wh92RV9ff/11ALhw4cKd8+ZtWL++rzV3b/NRVWsrdIGq6w9P285fKC5e0b//jJkza2pqAAA4rrCwkJ5MXV1dVVWVz86r+ISEvLw8R8spgGuivByqvEDyxEpMTOyTnR0XF/f000/7G4tZcnNzZ82axWxJQxBsczAHbWEcOHCgoqLCZc52ADjS2Nh49GhOTk6f7Gw63foLL7xAK9LzFywAjrPZbFYV2FtbAaALoLS0tLi42Gq3U/HStWuLi4v54ejsI2+88QZdPdZ8rPD0+TOXjGjau3fIlO8SE8pan3j09IMP9x7A6zHLzs7OzMystdvr6upcJ2rntT/OnD69a9cus9mcmpoq+HkDuET+HoKBZA4k+VFarTYnJ8doMCjJM5KTk2fNmkVLGhFkG4BtDpYhhJTv21dTU9N75wevWq7T6S7q14/Of86vgQPAyy+8sNRms9lsYHvaBl0AQGvmK1asAICqiopnV6xwaXlwABzHbVi//q677967Zw8AlJX9NHfuTd99/XWfnJwfZs265sefamtr6e6FkybR03B8ec6fP7+3vLy1tdXTyCvH9rz8/Pj4eC+fWnk5VHmB5DyK47iYmJjMjIysrCwAeObpZwKIyyA6nW5S4aQxY8YA8yUNQdA5WIcQsmXr1vr6escq8EZeGZKTCwoKaCHB4RwcwIsvvkBvDOm+Z7C4GHqco6KiIg6gT//+/LlyOZ6JvLlhw53z5lXs26fTak6fPn2o8Uj7mbOXjR1XW1tLd3I4B3064fz58+mBx44d27Vrl8/OK51eL2baEgcs51AMFOpYqampuTk5MTExzzyjEM8AgFGjRk2aNClSShqCoHNEANQtvi4rO3nypPsdHoQQs9ncJztbFRPjcI6Sl1+m1XJQAXR1G8iKFSvali49f//97Rx37sTJdq4rf8AA/ly5QF97ljo6Ok6dPPmPf308uP+AiwYOrK2tpTsUTppEPQMAWhoOc8ClmLPuvfdeuqW2trbWbnecibuF0O1JiYk5ubnKy6EYSKqjkhITs7KykpKSlOQZubm5V111FTuTiAQM3kMeAdA+0CsKC4cPG+b4pzrHe7ehoWHrtm1NTU2OQ2gJxGq1WumchjabDaCtrU21ZMkfnl9JCDkPXGcM+eyzz7KzshxFDqegAO+9915aenrh5ZMaGnrH9Tqsa+mJ5iePHu1Sne04ebq54dDq1avpdqvVOnHChN7H0Lrd3EjXTp46tXvXrtbWVv5QY04Enq6PX0dhIJaP0ul0+fn5AwcOfO655xRjG8nJyTfddNPcuXMzMzMFr09kgW2OCIMQsm/fvsqqKscq8Nof8XFxuVZrYmIi/cfbSy++6HiXA1gwf/7atWsdz32iI6/sdrvFaBgyarSneaveefvtX95+e0tLi91upxsnXX55SUmJFrizTz7Z8cQTbW3nz3e1Ll36f1SW62lVnD51qmr//tbWVt5W1/oHXejbt69erxf8vAF8PwP7SmOggANJGCsmJsacmZlpNqvpiFtFoNPpxowZM2nSpPDOiy4tyvkkUQUh5IeNG5ubm93nSQQAk8mUk5Oj1Wq7C+Yvv7yg52mAa9euNZvN9BbCjvPnzxxtPN7Fqbu6zp48+Ye//W3D+vW33naba+cVAMdxp0+fpkdxHEed40JbOwddWvjjk7Zzanjs0Qfbk9LT7733Xodz0OgNR47s27fPZ+dVfFxcn5wclcpHI5jxHKq8QHLGMhoMVqtVp9MpxjMA4JJLLpk2bVpElzQEQeeIVGhr479ffHH+3DnBeUqysrIy0tNjYmI4l6zNcY4pDm02W3FxsR5gn91O7z9vrKrI6Nd/zq23ujjHmTNnaJ0DOO7yyy8vKSmJA+54W0eBtc+J1iPn2+DC+fNPtp78fXr6PffcAzzn4Diuo6Ojvr7ebrcLegbfS0wpKRkZGX5dB+Ula5YDheio+Lg4q9WalJSkJM/Izc2dNGkS45OIBAzezxGp0K8jIaS6pqaysrKjo4Nznqfk0KFDx44ds1gsKSaToIJep1MDXFRQYFu27I477qAbVUmGioqKL7/48ujRxlvmzOHv77hRnK7Ouevul156qSY5Ocd+oAlMBlXb8r+tXPrQw/cArFmz5u577nnllVeOHapPzcq+6667cnNzMzIy7AcOHDlypPtWj577z/l3frQ0Nzc3N2dZLMkGA7CdQzGQJLFiYmLy8vLS09LoJCLKgM6LPmz4ME8lHwWAbQ4lQAjZvWdPbW0tv8/K0QRJTEy0WCwJCQn8Hqj333mnpbVVDWBKST3afMxms61YsaKtrc32lO2h3y7kWk8cB65///6OuXLPnDnjqHNcPnFiSUnJAw88cOzYvjOntB///aOLhw5pb28/0tR0/vSp2+fdvWbNmpbKw6aLLI2H62M4DgAeW7ocADiA1tbW6urq06dOCRY8HA0RjVqdk5vrMm0J4zlUeYFCHYuOCVSr1Uqar3DSpEljxoxRXveUC+gcyoEQsvHHH1uam93NgxCSkpJizszUaLX0l72utHTgwIGtra12u12n07W1tc27664N69eT9s4ly5bYnrKdP3vuUHOTqu1CwaDBN918M3UOAOA47vKJE6lsSUnJnDlz7PaDoOr66atvRk8cr9Fov/vhBwBY1Nj4EJzsau0iCbEccBlZufPmzXP4VuORIxUVFd46rzgOAGLj4nJycrw8cFB5yZrlQBIelZyU1K9fP51OpyTPYHxedGlB51AUhJCGhoa95eXneA+sdbwFAGazOTMjg6bmdevWDRw4sLy8/Pbbb6cl8Q3r12eZLTX2WiBEzXFLDh/+NYEzFZWdmRmPLl5CnQM4bmKPc3Act2rVql//+tetra1dLS321taff/q+k4sBgLbFi+CJJ86fb+O4rs7OzouHXtLQdOzOefMcxtDe0XHo0KEDBw54KZ7T1dTU1LS0NDFfVOUla8YDBXCgTqfrV1CQnJz8lE05npGRGQHzoksL1jkUBf3ims3misrK2trajo4Oh3nQ4kdDQ0Nzc3NWVlZyUhK9h7y8vJyvkJScnGe1Xjh/fv6CBQsXLly5cmXxvGJNjb13D+cWwPz58zs6OjZs2HDfffcZAfr160enUASbTdUFf/j9H8gjD3F/fe6R4uKU/v35B6rV6tycnIyMjOr9+7und3SeapfrWT127NixpiZLVlZiYmJgFyTUhygykOSx1DExOTk5FotFSY8H1+v1RUVFw4cPhyCucySCbQ7FQgjZvmNHfX29+/PMoaf4odfpHP+6d/xD/80NG9ra2kClsi1btujBBxuOHweA/v37XzxkCN1n4oQJVIT/5eE4bvXq1ffdd197e/uaNWva2tqS4vSmc+3nTEmNzSdsZ08uV8Xokw133nmn05gtAOC41hMndu3c6bPzSq3R5Obm9t4LqbhkzXKgII/KSE/Pz89Xq9VKso0xY8YUFhYqvqQhCN5Drlg4jrtk6NCrZ840GY2OLY53T506VVlZWVdf3z1JiRuGxMRnbDZdsqG0tLS0tJRuJL23jBjdD7n33ntfeuklulx4ReEIrcbOdQ6+eOjQQQOe/dOf//CHPy5qrACA0rVrAWBdaanFYnl93ToASE5OnjBhQn5+fq8Wv5+tZ7W9vX3//v319fWCQ1Y4EQheJX+PUl6gkB6VnJw8Yvjwiy666Nlnn1WMbVit1oULF06fPl2v1wteGcWDbQ7lQwipq6+vqqryUvxISUnhHM0Ajvv00890Oi0AdNc2bDbdihUXDxkCAMBxEyZMMBqNC4uLtx+xf/jmh1TK8UXiOG7NmjX3/epXZ86cqaurazt3rv5AXUJyQkpq6pdXXHFv/aG1a9c2VlRk9O/feOAAADy3uqSu7hA9vqOj4+CBA4cPHxYsePDbH2np6SaTyfu3N4DvdmA/B+UFkiSWXqfr27dvSkrK8uXLAzsHBjEYDLNnz46qkoYg6BzRAiGksrKy1m7nFz+gxzy0Wq3FYomPj6fO8eabbzomKdHpdF0cd8011xw8cIB+VyaMH280GmHhwoWtra0A60pLm1taXNM7wCtr1syZM8d+0F72VRkA3HzTjc3Hjn33w0YAWLSoceHCVmgFSNCvfKFkxYoVjio9AJw+fbq2tvbEiRM8OeHBuzk5OZ6mLXGH8WTNciB/j1Kr1VkWS25uLgAoxjb0en1hYeG4ceMgykoagqBzRBeEkP9t2XL06FH+FsdyfHy8xWLRqNU0ib/91lsAcPMtt3Acd+bMmYMHD9JvS7dzAMDChdDaWgxgt9s/+OADKuJwDprfNRoNHfu7a8f25uOtOp0OANoWLbLRw1eupA/EXbFixS9vv53f7mluaaHTlnirfwDotNo+XkfueoHlZM2sK/g8KiMjw5qbq9frFeMZADBs2LDp06dHZ0lDEHSOqIMm2e++//7UqVP8LQ7SUlNNKSl049tvvcV3DgDgOG7C+PEmo2m5bbnNZnvaZrP1zJwIAB988IGLc3Ac9+qrr86fP7+9vb2u9uB/v/4CALobNDYb2Gy0iGK3H6irr+M7B12qq6urq6sT9Ax+c8RkNKalp/O/zCwna8YDBRzLYDBYc3MNBsOyZcsCi8sgVqt1xowZCpgXXVrQOaIUQkh9ff3e8vKOjg5wMw+O4ywWS3JysiM5O5wDOG78+PGZGRmrXlltr7GDwWBbuBAAinvM4/333wdn56Cvr7322u23365Wq/nz9TooLS0tLp437647wdk5aPGjtra2qanJR/uD4zLN5qSkJE+13ACuErqCyEP0er01NzczM1NJnmEwGKZPnz5o0CBMku7g/RxRCv0xZGdn7927137gANcz5xWFEHL48OGWlpb09PS4uDinIwkBANtTTx20HwCVCugk6j0PPKfmkZaaevTYMZeIjnvI6WphYSGUlZX1vFtcbAfoAoAN69fTLbZFNtsK2y1z5sTExBQUFKSlpdXX1Z08eZKD3hs+gOMIANezeqSh4UhDQ67VqtFoRF4Bv2DcFcJ1lNVqpZOIKMY29Hr92LFjx44di91TnsA2BwKEkJ82bTp+/LjLdvrdSExMTEtLu3DhQl1dd2/S+HHj6A5Gk8m2fDn0PLO2uLgYwF5aWkaAzC2eu6609GhTE7/C7VgqXbv2woULHMcVApTxItIqCB15VXGgIgm0JSWlT614ivaYnThxory83FPBg99MiY2NpY+tFo/yXEGGRklqamq/ggK9Xr9sqUI8AwCGDR82efLkKJlEJGCwzYGAo8FR9s03dOQun1OnTp06dSo+Ph54d3lTbLbl/KedO0brc8CVGgzFxcU33nhjWVkZvyBPKS4upuWNMke3ldUKdAQwwEqDYWFFhUGvb4XzF+CC+wnTdkZ388XlnAghHHfu3Ln9VVVGkyk1NZXjOMaTNZuu4P2QhISEfv36GQ2GpUuXBnYmDGK1WidPnpyfnx/wdyZ6wDYH0gshpNZu379/Py1+gHPW6F7muHE9bQ6O455//nm+gs1me/bZZ5csWQLQPXSKdmG988474FyToK/r1q270NbmiOE08goAABwjr266+eaTJ06Ul5cLtjNcxB2rAJCRmZmQkODySZXnCrIdpVar+xUUmM1mJXmGXq+fMWPGiBEjMB+KBJ0DcYUQsnPnzkOHD9NVlywNAOPGjnVsKSkp6ejo6OrqAgCNRtMO3P3zF2Smpi7paX/QZ9bSWwrffucdF+egr6+//joHcOFCm06rA8fIq25KoRSguFin0xVNn16+dy946KQCD+bBAajV6uysrBi1xxY2uoLIo/r06ZOfl6dWq5cuUY5tXDH5inHjxmFJwy/QORBhCCGbfv65hXeLH7iZB10tKSnp6ujo7OpSazQLFizgOO6FkhLoabX0lkDs9tKysiNHjrg7B31dW1o6d+7cDevXu468stlKrdbi4uJZ113XW+cAD57hIstbjY2NtWRlifzCs+wKcnZVOY4yGo2DBg2K1eu7G5SKYODAgTNmzPA5GQHiDjoH4hFCyJHGxn379p09e9axkZ+QHY0P6HnauWOHF0pKbEuW2Gw2sNng6adty5bR2saRI0cyMzMB4HBDg7t/cBy3Yf16fv8Vn27nAA+e4dlC+NtTTCaD/8VPxl0hpF6i1+sHDxpkNBqV5BmZmZkzZ86kJY1wn0tEgs6B+IAQUlVVRactoVscBQ/61eG3PxwLHMCLL6RaraV2u502O1QAlxcWTps27clFi35bXLzdbi8rKzt0+LCLcwDAhvXru7q62tvbCwHKAIZZrdvtdgDQ6XRWq9V7wwI8Fzz447syzWbHaONodgXvh6jV6r75+Tk5OUsWK8cz9Hr95CmTx48fj6kvGNA5EFEQQnbs3Hno0CHwUPlwd46XXnyB/+Wi/rFixYpFixY55ryy2+0bNmxwcQ6O497csAEAOjs7HXalBojR6ax5eX61MLysarVas9msiolx/7CMu4I8R1nM5v79+6vV6sWLFwcQjk3GjRs3ZcoULGkEDzoHIhY6cvenTZta3OY3BF7nFf+f9i+++KLVaoWDYO+yA3RPN9I9eHfhQli5EoqLC+32srKy+vp6vnPQpbfefBN4BXNdj3NAAJ7hsr3n3bi4OLPZTCv8nmA5v4fiKKPROKB//8TERCV5Rl5e3g033IAlDalA50D8g05bUrV/v6P44ZKZx44ZAz0pu6SkpLOzk46spfssWLAgMzPTceeHzWZzzFvyTVnZgbo64DkHfX37rbc6Ozs7Ozu1Wm1eXl6wniG0mpKampyc7N0/+DDewRVwrNjY2AH9+6enpy9+UjmeYTAYfvGLX+T3xZKGlKBzIIFA52yv2r8fQKj3iuPGjB3r+Nf9Sy+9pCKEA5i/YAG1E+olKoBlvJFXdoDX33jD2je/dn+1e/HjnbffLpo+vWLfPoHGjtAqiCt48HfLysrSarWMu0KIjlKr1bm5udbcXLVarRjb0Ov148aPmzp1KgThwYgg6BxI4NA52xsbG3u/RT1LHMd1Nz44DgBeKin51fz5jhz92iuvLF6yxObouaLzltjtr7/xRk6fPgBwgD4LxLn4cfLkyYqKCh8m4Wm7OC/R63Rmi8XlRxHpruDzqCyLpaCgIDY29sknnwxAik1GjBhx9dVXY0kjRKBzIEHRPWf7d9+dOHmSbnFJ4GNGjwZeanYk7lWrVtGWB/8JoytWrFj05KKFv124ffv2srIyu90u4Bzg2zP8sBYhC0k2GEwmk6fOK8YbJX4daDKZCvr2NZlMTy5Sjmfk5eVdfc3VFrd/ASASgs6BSAAhpKamprKqig6F6v5S8b5bo0eNAmfnWFtaeqH3jj8CwNlstu6RVwALi4tbAex2e1nZNzW1NdDjHJUVFZJ5hq/V9LS0+IQEMcUPNl3B+1FqtXrQwIFZWVlK8gyDwTB16tSRl47EtBZq0DkQySCE7Nmzp9ZuF6x8jB49mp+dOYA1q1bnWnMdxXOw2VTPPLNs2VLb8t5erHl2ew1AWVlZdU3NyZMnKysrhU0CxJmHuIIH/93sPn1UKpVf10HOTqfADizo29dqtWo0GurTCkCv148fP37ChAnYPSUP6ByIxBBCfvzxx+bmZkfBA3gLo0eN4ifo1atXAwDodDGdnQAwd+7c/Jw+S5bbAFSg6rItszmK52VlZdu2b6+srOzVFN3CCNxLOA4AdHp9Zmami5hfsHNURkbGoIEDY2NjFz2hEM8AgBEjR0ydOhVH3MoJOgciPYSQY8eObd+xg87Z7t48GHXZZY40XPraaxwhHRx3V3Exx3GlpaVdnZ10t976ud1eWla2ffv2yspKv3ql/NjNV3MkOSlJcNoSdlzB+1FJSUmDBg5MSUlRkmeYzearr7m6b9++mMdkBp0DCRWEkIqKipra2o72dseXjN9c4PsH8IZRvbZ2rW3Zst5nfvSMvJp65ZUX9esnrWc4bRexmpqWFhsb6/2Ds1b2UKvVF/Xrl5eX98QTTwQWhUH0ev0111xz6aWXYgYLC/hkJyRU0J90//79t23fXldXRzcSmosJAY77efPmyy67zP3AO4uLgV+Xpg+BAph65ZW9z3HiPVAWHKu87e679T531nEmju0uqy5H8d491tQUExOTaTa7PLnd53UIAEnaJXl5eRf166fRaJRkG1OnTh0/fnxcXBzaRrjANgciB4SQHzZubG5uBqHOq0svvZTf5uA4Djhu7dq1fAWbzfbs73530UUX9R7puUgOwRU8xNQ/aPGjs6djzS/k8ZKUlJRLLrkkLjb2iceV4xmDBg265tprsKQRdtA5EJkghDQ0NOzes+fcuXOuOZ/jOABHzwPfORx3m3cRUMeo+/fvH3jvk4jtYgoe/N2SDQaXaUtYKHvExsYOHzYsJSXl8ccfD0CWTYxG40033YQlDUZA50BkhRCyr6KitqbmQns7QG/yo/8fOXIk9DgHB1C6dq2KEhPDcdzMmTOr6Ngq3oFXTp36+X//G3w7w9N27xZCt5vNZhYeOAgAarU6Py+vf//+SvIMvV5/5ZVXTpw4EZMVO6BzIGGAELJt27aDjvkNAfgLI0aM4Of9t95665ZbbuE47tSpU1VVVS4HXDl1KsdxHMd98cUXnjqv/DCPQFc1Gk1Gz8hd74Suq6pPnz4XDx6s0Wgef0w5tjFhwoSpV07FkgZroHMg4YFWmL8uKzt58iS/z8qx4PAPR/7vdg7nPadOnfrQ9df3nzbtrrvv7urq+vrrr3t3CKzzylcLQ2C1Z6Ner09PTw+g+BFkuyQ1JeXiiy9OTk5Wkmfk5+ffdPNNWNJgE3QOJJwQQg4ePLh7926Xziu6cMnQobSfCnqcY39VlUvSr66uXtTYuLC1dbvdPm3atLnFxV1dXd99+y0E7BlCq+DJM4RWjUZjQmIiLX6EuhgeFxt78ZAh5szMxx57LLBADGI0Gq+99tqLL74YsxOzoHMg4YcQsm/fvn0VFcDPmD1Lw4YNA4dz7N/vktar9++nDxmE1tZigIkTLz96tPG2X/7yh++/D7zPyvtu3psjPXEsFgsIjdyVquyh0Wj65uf37dtXo9E89qhCbEOv10+cOPHKq67kDZ9GWATv50DCD80RAwYM+GnTpiNHjrikjO3btnE9/gHgdicH0McM2hxzttvt9vT0jKNHG8dPmFBfXy/qDg/eKgje4cFfpUc4v0tPDHhxDh0+rNNq0zMyfHZeBZAic/r0GTBgQFxcnGI8AwBGXjry2muvpSUNtA3GQWNHGIIWPz7//PMz9IGD7tVz57FYwHFTpkx5/vnnAYCoVMuXLQOgD6iFsrKyb7/77lB9ve8Gh6ftQRQ8+DsnJiUlJyf7Vfzw8qtMTU0dOGBAamrqo48+Kl6QcfLz86+66qqCggJMR5ECtjkQhnC0Cvbv37+voqK9vd2poQDd/64H/r3oADqdbtGiRY7nfJSWlhUXFjrpCt067m07f1WoOQI9ZyLY4HDZ+dTJkydPnkxNSdHqdODVFbxfGY1GM3To0NycnEcfUY5nGI3Gq6666rJRl2E7I7LANgfCKISQnTt3VtfUCBcqehamTJ7Mcdzq1avb2tqAN0ki2O0rpk2z5uXR3aYXFXVx3Keffip/wYO/arZY3D+pmN/gwAEDCgoKNBqNYmxDr9dPvHzixIkTccRtJIJtDoRRaDYZOnTod99913TsmOvMVD0L58+f1+l0jqMcLQ9baSlMmwY9uwHA6lWrAOCuu+/+7+efy1nw4K82HD6s1WrTfI3c5WdSi9l8ySWXxMXFKcYzAGDw4MGzZs0ypZiwqRGhYJsDYR1CyOHDh3fu2nX27FnBf8nn5eVlZ2WtXbvWbDaDCuw1drqLTqfLy8uj+xdNm/bH3/3u6JnT/XJy582b133boOeCh0C7JOiCB//dxMTExKQk7w8cjIuLu3TkyLS0tEcefiTIa8gOFotl1nWzsKQR6aBzIJEBIWRveXl1dfWFCxcABDqvBg8e/I+PPmpra3M0QSZMnHiovh4AOICiadOMf/p/Cw83tMbqoXxf/2nT7rjjjq/LykR5hohV8GQhXldTUlLUGo37h9VoNIMGDepXUKAkz9Dr9bOumzVq1CjMOQrAv8dkIki44Dhu4IAB11x9dW5ODkDPMCzewp7du0deeqnDNubceit916HwtE63srQ0VacHq7Xis89uf+ThuoMHJ0yc6NiD8GV7Vp22e1rtOROno5zfFVxtbm5uOnrU5aaPgoKCGdOnK8w2rrrqqsVLFqNtKAZscyCRByHkm2+/PXbsmGCLIT09PTc3lxBSV1d36NAh+u60adNK1649ceqUNiYGOjqW2WzFxfOq7TVXTZtWNH36nt27ZWhhuKzyz1qr1aampRkMhtGjRsXHxz/80MOhvoay0bdv31vm3JKSkoKpRkmgcyARCSHEfuBAeXn5mTNnAAQ6r7Kysrq6ug4fOkRXp1111Q/ff9PW1lGxb58hOXl/dTXX2XmivBzMmf0GDe7Tpw8EV/DwPsLK487O8rNnz/7L//0lJNcrHBiNxjlz5hT0w5KGAsHeKiQi4TguNydnelHRoIEDNRqNe+fVofr6hsOH+b1PY8dfXllV1dnZdbS52WQypaamdmVnq2iZgdep5dR3JNR55dIr5fKua+eVSyeVy86iHywYWdCSxtJlS/sW4OM0lAmOykUiGJqVBg0atHHjxsMNDU4taOfb/ei2e+6554cffjhx4kRNTc2zNhuoyMLf/NaxvyTPnXWE9jRIt3csr1NY0tM6ifg8e/nll0+bNg3v0lA26BxIxEMzLwD894svWltbBe/82FdRkZ+fH6NS7d2715hovPjii5969lnS0ZmSntZy4oTjjnSfd3gI3lLu8Q4PoVUAtxs+gG4jABDRxtG3b9/rZl+XnZ2Nd2koHnQORAk4nMJut2/fscN92pKDBw4cOnQoPz8fAPIvyj937nxWdnZDQ0N8YmLLiROipiEBN2vp3sPDqot5eNk58ueFNRqN182+bujQob++/9eR/lkQMWCdA1EOHMfl5uZeN2vWoIEDXWsIhHR2dFRWVg4ZOjQ3N3fv3j0GgwEAJlx+ee8uIFy6oIf7Lni4jMrlhXYICAzSjfCCh16vnzZt2tJlS4cMGYKeET1E/D92EEQQQkhZWdnRpiYAgSFSKamp/9u8+bZf/rKrq+v48ePle/f6dRtg7zZPu/k5Kpeuzpo1689/+nPoronkXDbqsqKiIhxxG4VgbxWiTGjx4+jRoz9v3nz27FmnqXYJaT52zJqXV1dXl5mZSfd3qoqHteAREfQt6FtUVNSvXz8saUQn6ByIYqEZ7eqZMysrK/fs3dt+4QLHm56dcNzBgwcPHzpkMBpdBmKFq+Ahy1UJFqPJWFRUNHr0aPSMaAadA1E4NLtddNFF27Ztq6yqcvGGjs7OY7RHy22okzfPcNkuojni0BQelUt35vVcsUlRUdGkwkk44hZB50CiAprphg8f/tXXXzc1NTk9j9atk8pbnxUAhOwOD5YZMmTI7Otn05IG2gaCzoFEEdQX6uvrt23ffubMGYE7PzwXPAAEvETygkfYLo1nsrKyZl8/u1+/fnfdfRd6BkJB50CiC5r7srOzd+/eXVFZ2Xvnh+deKZfV0BY8WEIfq79+9vWjx4x+9LFH0TMQPugcSDRC8+DFF1/806ZN9trawD3DZXtwBQ/ZPr4YJk2aVDS9CEsaiCDoHEj04pi25Msvvzza1BT2ggcjFBQU3HrbrVjSQLyAzoFENQ5rqKmp2b1nz5kzZ6QqeABPxGfBg5FRuSaT6dbbbu3Xr9/9D9yPnoF4AWcfQRDgOC4vL+/aa665ePBgEJyGpHdFaBoSx3Yx8647duO963Ks/Ohj9UVFRctty/EJ4YgYsM2BIN3QjDlkyJBvv/22/tAh4XYGAPgqeATcHAkXo0aNmn39bCxpIOJB50AQJxzFj/988klra2soCh6eaubyf9iCgoLZ18/GedERf0HnQBBXHDZRXVOzdcuW9vZ2QZMA8FXw4Gn6LnjI+xlNJtPs62cPHToUSxpIAKBzIIgwNJ/2zc/fsmXLvooKEDMq12XV+6hctxFW8nwufay+cFLhpMJJsbGx6BlIYKBzIIg3aG4dOXLkf7/44mhjI4Aoz/Bd8Og+QKD+EVJGjRpVNB3nRUeCBZ0DQXxDix1HGht/+vHH045pS7yahGBJw2OfVeh7qwoKCoqm47zoiDSgcyCIKGi2ve6668rLy3fu2tV+4YLfBQ9P05CEuLfKMYkIegYiFegcCOIHNPMOHDhw448/1lRXA0hd8JAaOi86ljQQaUHnQBC/oVl43Nixn3/+eePRoyBdwUNC+POiSyqMIOgcCBIotPhx8ODB/23Zcub0aQkKHhKB86IjoQadA0ECh+blnJycHTt2lJeXX2hvD6bgETz6WP30oumFVxTivOhISEHnQJBgoTn6kksu+eGHH6prarq3+l/wCPI0cF50RDbQORBEGhzTlnz2+eeNR44IzEoi+oZzf8F50RGZQedAEMlwTFuyf//+zZs3X2hv9zbRoVvBI4CIOIkIEhbQORBEYmgGLygo2L59+46dO0U9d9b/3io6icj0GdOXLV+GnoHIDDoHgoQEms2HDRv21ddf1x086OO5s36C86Ij4QWdA0FCCC1+NDQ0bN68ueX4cU8Fj+5VEeC86AgL4DMBESS0cByXmZl57bXXjrrsMq1O59ju8tBAn75hMpluvfXWB37zQFZWFnoGEl6wzYEgckBz/aBBgzb9/HP53r1+jcrFedER1kDnQBD5oHl/9KhRn3zyyZHGRteChxA4LzrCIOgcCCI3juLH999/f/r0aUf7w2XGQ8ckIljSQFgD6xwIEgZo8ePGG28cNmyYTqvlFzwAQB+rv/XWWx97/LGCggL0DIRBsM2BIGGDusLw4cO/++67qqoquhHnRUfYh+C3E0HCDr2B/NSpU8ePH8/JycFfJcI4/x/AT6kL/qQfqgAAAABJRU5ErkJggg==;strokeColor=none;labelBackgroundColor=none;rounded=0;html=1;whiteSpace=wrap;fontSize=15;" vertex="1" parent="1">
          <mxGeometry x="120" y="260" width="138.08" height="90" as="geometry" />
        </mxCell>
        <mxCell id="wo0ciTgMhSi1uJN295z3-9" value="TLSG2210P&lt;br&gt;(10 ports PoE+" style="vsdxID=5;fillColor=none;gradientColor=none;image;aspect=fixed;image=data:image/png,iVBORw0KGgoAAAANSUhEUgAAAhMAAAFbCAIAAADgIpvvAABZ+ElEQVR4nO2deXwTdf7/3580V+8kPZOWNi1FLkEO5UYqoBRQEV0PdJWKB6yru3iLXPHYZfe3+91F16OASlHw1nXX3fVYj3qhyHIfpS1tAy2UUlrKTekxvz8+bTpJJskkmUw+mbyfDx9xZjLzek+myfvF5/P+zGcIx3GAIAiCIKJRhfsEEEQUhBBCSLjPAkEQAACCbQ6EcahhPPPMM3Rt6dIl+KVFkPCCzoEwDSHk2Wefdd++ZAn6B4KEDXQOhFE8eEZvl9XixYsBAL/ACCI/6BwIcxBCfve734ncefHixfgdRhCZQedA2MKXbQiXyZ988kn8JiOIbKBzIKxACPn9738fjAL6B4LIAzoHEn5EewYBAO9DcxctWoRfaQQJNegcSDihfU+///3vxbiCSEkAWLToCfxiI0joQOdAwgYhZMWKFX4dAf64yxNPoH8gSEhA50DCgJBnSNnmcOg8/vjjgCN3EURq0DkQWSGE/OEPfwj4aAjIXR5//HH8niOIhKBzIDJBSxqebSMkbQ4+jz32GH7bEUQS0DkQOSCE/PGPfwxeBoJ2F/QPBAkedA4ktIj2DEnaHKQnqLedHn30UcDiB4IEAToHEip4niGfK4jXefTRR/DLjyCBgc6BSA8tafy///f/xB/Rc2Cwkf3VeeQR9A8E8Rt0DkRiCCHOnhE2VxCv8/DDD+MPAUHEg86BSAYh5E9/+lNgh/YoBHsKAeugeSCIeNA5EAnw6hnhdwXxOg899BD+IhDEJ+gcSLAQQv785z8HqdEjFey5SKFDHnroQfxdIIgX0DmQwBHnGWy5Qu+SV50HH3wQcOQugngAnQMJhB7PiEhXEK/z4IML8QeCIO6gcyD+QUfc/t///Z/4I3oODCos7wTk1lm4EP0DQZxA50D8gBDi7BkR7wridX7729/ijwVBKOgciCgIIX/5y18COI6nEFR8FnR++9vfAhY/EASdA/GJZ89gIpvLr/Ob3/wGfzVIlIPOgXiEljT++te/BqPBUwvqXFjSIQDwm988gL8dJGpB50CEIYT48gymsrlUOk5H+tR54AH0DyQaQedAXCGE/PWvK3mrQYmxpOOfK4jUeeCB+wGLH0iUgc6B9EIIWblypfjdeQcGFVYKnZC4gnid+++/H39KSPSAzoF042wb6AqB6Pz617/GHxQSDaBzIEAIee655wI4jqcQeHDnM1GCDvoHonjQOaIaz56BriBWR1Dqvvvuw18WomDQOaIUOuL2+eefD1jAWS3wE2FZJ1Cp7mPuu+9X+PtCFAk6RzRCCPHqGUxnc0ZcQbzOr36F/oEoDXSO6IIQ8vzzf+OtBq7kLMuWTqBSfruCSJ1f/WoB4MhdREGgc0QLhJC//e1vvvcDQFcIkc6CBQvw54YoA3QO5UNLGj22ga4QZp358+fjjw6JdNA5FA4h5IUXXvD3IGeFwIO7nYwEIsrQQf9AIhp0DsXiwTPQFVjRuffeewGLH0hkgs6hQAghL7zwIroCwzq9B9x77z34G0QiDnQORUFLGi+++KKXXdwOCSSOUGjU8SjiU+eee9A/kEgCnUM5EEJefPEl5y2ByAgpo45HEQl17rnnbvw9IhEBOocSIIS89NJLvvdjKwuzphNaVxCpc/fddwMWPxDmQeeIbHiewVQWZk2HCVcQr3PXXXfhDxNhGXSOCIYQ8vLLL/t1hJBIIJFZ0okwVxCvc9dd8/DnibAJOkdEIuQZTGVzqXSYy+Yy68ybNw+w8wphD3SOCIMQ8vLLJYCuoHAdp73nzbsTf6cIU6BzRAx0xG1JSYmn94UOCSSOFDpMZWHWdDzu7V3nzjvRPxBWQOeIDAghJSWrnLcEIiOkLIEI6ngXkVDnzjuL8TeLhB10DtYhhKxatcr3fugKIdcJuSuI1CkuLgYsfiBhBZ2DXXiega4Qah1WXMGnjkNq7ty5+ONFwgU6B4vQksbq1avFH+FBx+/IStSJGFcI4PrMnXsH/oQR+UHnYA5CiLNnMJWFWdNhLZvL1+bgc8cd6B+IrKBzMAQhZPXqNRDx2VwqnYjJ5izo3HHH7YDFD0Qu0DmYgBCyZs0aT296OMTvICzpMJ2Fw63jY1cvUrfffjv+ohEZQOcIP4SQNWtecd7it4YH5bDoMJWFWdPxrxsqMKnbb/8l/q6RkILOEU4IIa+88orPvTwc63c0KXSYysKs6UjlCoG3Ofj88pfoH0ioQOcIDz2ega4QKTpyuILkVfTbbrsNf+BIKEDnkBs64vbVV18Vf4QHHf/Cej4f1IlIVxCvc9ttt+LPHJEWdA5ZIYQ4ewa6Qqh1WHMFaXqifEq569x6K/oHIhnoHDJBCHn11dcgsrMwazqR5ArhaHO47nfrrXMAR+4iUoDOEXIIIa+99prgO54P8S+CEnVYy+astTkC15kzZw7+6pEgQecIIbSk8dpra503+qfhWTxydSIpm7Om44+Ut/3mzLkFf/tIwKBzhApCyNq1a73v4vlY/0KxpBNJWVh2Hd/7ydDm4HPLLegfSCCgc0gPIWTt2lLP7/onxpIOU1mYNR2ZSt/+SInSufnmmwGLH4ifoHNICSGktLRU/O6edfwLK4UOU1mYNR2ZUrmEUv7q3HzzTZgKEPGgc0gDLWnwbANdIVJ0wl+yDpmU3zo33YT+gYgCnUMCCCGlpesAXYE5HXSFQERuuulGTAuId9A5goIQsm7dOsF3PB/ih7zX0FGuw1QK9q0joVQwriBS58YbbwQsfiCeQecIEELIunWvu230Q8CreJTrRJgryN7mkMqlfOx0442/wPyACILOEQiEkNdfd7UN/vtej/UjjhJ1WMvmrLU55NMRJ0V+8YsbMEsgLqBz+Ach5PXX3/D8rh9KXqNEqE6EZXPWdERLSeYKInVuuOEGwM4rhAc6h1gIIW+84dEzXPb1quNHTJZ0IiwLs1ZUkF1Kep0bbrge0wVCQefwDR1x22MbTGVzqXSYysKs6chX+hatFk6d669H/0DQOXxBCHnjjfWArqBMHVm7j8SpMeUuHt++/vrZmDqiGXQOjxBC1q9f777Z6yF+yEuhw1QWZk0HXUECES86s2fPBix+RCvoHAIQQtav3+C20Q8Br+ISiES9DmulZgmlmHAF8TqzZ1+HOSQKQedwgpY0NmxwtQ3+Ll4PFxvH12lEsw5rrsBam0M+VxCvc911szCTRBXoHL0QQjZseNPzu2JlfEWJZp2IdAUZT4lFVxCvM2sW+ke0gM4BAEAIefNNj57B39GXjtiAStRRqitEdjaXWWfWrGsBix9RQLQ7B88zmMrCrOlEtSugu/irc+2110Z5YlE8Ue0chJA333wLIjWbS6WDrhCsiLRSEaXj7b1rr70mmtOLsolS5yCEvPXWWy7bfB0iVpslHXSFYEVE6EgoxZSONK55zTXoHwok6pyDEPLWW2+7bRR7tC9xOXXQFYIVkVBHQqkIcgWROtdcczVg8UNZRJFz0BG3b7/tahuO930dLjaOFDroCsGKSKgjoZTyXEG8ztVXz4yebKN4osU5CCFvv/2O53fFyviKIoGIhDripJjSYSoFSyulZFcQrzNzJvqHElC+cxBC3nnHo2fwd/SlIyqaiPORRkecFFM6TKVgP3QklGIzm8usM3PmDMDOqwhHyc7B8wx0hVDrRKoryNXmYD2by68zY8YMBScfxaNM56AljXfeeRfQFSTQYS2bs9bmQB0vOj5EZsyYrsgUpHgU6ByEkHfffZe/QcQhooTFRY8snUjN5qzp+JJSpI4fIt51pk8vUl4iUjaKcg5CyLvvvue2UdSh4vQjSydSszBrRQUJpSJHRzJXEKkwfXoRYPEjclCIcxBC3nvP1TMcb4pT8L0LSzpMZWHWdKRKwRJKMaUjtyuI1ykqmqaMjKR4It45aEnjvffe97qPbxlxseTRYSoLs6YThhQsoVQ0u4J4nWnT0D9YJ7KdgxDy/vvePIPuJU7K9y5S6DCVhVnTQVfwrqMEVxCvM23aVRGdnZRNpDpHj2egK0SKDlMpWFopdIVQ6Vx11VWAxQ8miTznoN1T77//Qc+q7yPEyUogEq06TKVg/3QklGI8C7Oq41vkqquujLg0pXgizDkIIR988AF/g7ijfLwvOnoU6kSwK8jS5mAqC7Om45+Id50rr5waWclK2USMcxBCPvjgQ6HtPo4TrR+FOqxlc9baHKjjRUdKVxDJlVdOBey8YoMIcA5CyIcfCngGY1mYNZ0Izuas6XiVUqROGFxBvM7UqVPYz1qKh2nnoCWNDz/8u9d9fGiIjhVBOhGchVkrKkgoFSE6TLuCeJ0pU9A/wgm7zkEI+fvfvXkGY9lcKh2msjBrOugK3nUU4gridaZMmcxsBlM2LDoHIeTvf/9I9M4+3mdJh6kszJpOeFKwhFLoCmHRmTx5MmDxQ3bYcg4Xz0BXUIoOuoJ3HVayMJM6okQmT76CqVSmeFhxDlrS+OijjxwbRB/o430pdJjKwqzpMJWCpZVCVwi1jt8i3nWuuKKQkYSmeJhwDkLIRx/9Q2i7j+NE60sgEpU6TKVgv3UklIqELMyajsSuIJ4r0D9CT5idgxDyj38IeAa6ArpCoDpSSTGVhVnTCZsriNQpLJwEWPwIJWFzDkLIP/7xT1/7eHvTn1jRpsNaNmetzYE6XnRYdwXxOpMmTULzCBHhcQ5CyD//6cU2mMrCrOlEdjZnTcezlCJ1wp/N5deZNOly9A/Jkds5CCH//OfHonf29qY/QSNFJ7KzMGtFBQmlIkEnkrK57Drk8ssnon9IiHzO4eIZkZPNpdJhKguzpoOu4F2HqSzMmo5YkcsvnwhY/JAIOZyDjrj9+GNqG0xlc6l0mMrCrOmELQVLKIWuECadQESEpHpXJk6cgOYRPCF3DkLIxx//S2i7t4P80Q+1DlNZmDUddAXvOkxlYdZ0pHcF8aB/BEkInYMQ8q9/uXsGukKk6DCVgqWVQlcItU44XUGkzoQJ4wE7rwIlJM5BCPnXv/7tax9vb/oTSwKR6NNhKgUHoiOhFPNZmDWdCHAF8Trjx49H8wgAiZ2DljT+/W8vtoGugK4QmI5UUkxlYdZ0mMjm8uuMHz8O/cMvpHQOQsi///0f0Tt7fMfPoFGlw1o2Z63NgTpedCIsm8urQwBg3Lix6B8ikcY5XDwjQrIwazoRn81Z0/EgpUgdprIwazp+iIwbNxaw+CGCYJ2DEPKf/1DPYCoLs6YT8VmYtaKChFLM6zCVhVnTCVzEi87YsWPQPLwTuHPQksZ//vOJ0FseD/IzREToMJWFWdNBV/Cuw1QWZk0nJK4gHvQPLwToHISQTz5x8QymsrlUOkxlYdZ0wpmCJZRCVwiHTphdQbzOmDGj0T/c8ds5CCGffPKpr308vuNnrJDqMJWFWdNBV/Cuw1QWZk0nYlxBpM7o0aMBix/O+OEctHvq00892Qa6QqToMJWCpZVCVwi1DivZXH6d0aNHoXk4EOschJBPP/1MrCi6Qth0mErBAepIKIWu4I9O5GVzGXW6/zdq1GXoHyDGOVw8A10hfDpKcIVQtjmYysKs6TCVhVnT8U9k1KjLIOo7r7w5ByHks8+oZ6ArhFqHtWzOWpuDqSzMmg5TWZg1naBEvOhcdtml0Wwews5BSxqfffa50FvCOn4HjiIdJWRz1nSE1BSpw1QWZk0nVK4gnqj1DwHnIIR8/jnfM5jKwqzpKCELM1hUcFNjKptLpcNUFmZNJ/yuIF7n0ktHRpt/ODkHIeTzz//r44AIyOZS6TCVhVnTQVfwrsNUFmZNJ5JcQaTOyJEjIZqKH93OQT0jErK5VDpMZWHWdMKfgiWUQleQV4ehbC6/zsiRI6LEPAjHcbQSrlLFiDoAXSGydcKfgiWUQleQVycis7lcOr0iI0YMV7x/dDvH6tWr9frYrCyL0AdGV4gUHaZScFA6EkqxmoVZ02EqC7OmE4iIsv1DTf/Hcdz58+eqa2qMBqPJZPI6VFd4s7+Bmc/CrOmEP5ujK0SsDlNZmDWdYEU86Wzbtp0OUlWkf6gdSxzHEYDjrcdbW49nms1xsbE976ArhFon/Nk8NDpSSTGVhVnTYSoLs6YTKlcQybZt2wGAkJA8tDu8dPdWlaxaRQCAWiQhBECt0WRnZatUKtcDWM/CrOmwls3Dr+MshTpedJjKwqzphNkV/NUZNuwSJflHj3OUlPBco/c1NjbWYsnyfz5dgW2BnBzrOuHPwqzpOEuhjhcdprIwazoR5gridS65ZKgy/KOnzgEAHEdbVYQQDoAAcADnzp2rrqlOS01NSkruGb/rLsJUNpdKJ/xZmGEdqbJMsFKs6jCVhVnTYS6by6mzY8dOZRQ/euocHAcO2+A4AsCzEa7p2LGWlhaLJUur1YoRRVeIZB10Be86TGVh1nQiMpvLpdMtsnPnLroa0ebR7Q4vv/yya0eV0KtWp8vOyiKumRhdIVJ0mEjBEkqhK8iow1QWZk0nQJGhQ4dEqH/09lY5WhhACHh4vdDWVltbGx+fYDabu7q6PImiK4RDh4kULKEUuoKMOkxlYdZ0JBDxJLtr1+4I7bzq7a1ydE8JFjz4r2fOnN5fvT8tNdVgMHR1daErhF6HqRQcrI6EUkxmYdZ0mMrCrOmE0BVEsmvXbojAzqtuh3jppZfAvXfKV/+VRq22WLLUarWrKLqCHzpMZHN0hcjUYSoLs6YTflfwlyFDLo4U/+h2jhdffFG8YXS/9izExcaazZZAYrObzaXSYSKbh0BHKimmsjBrOkxlYdZ0Is8VxOtffPFg9v2Ddw+5o0vKe8Gj94Du3c6eO1dTU200mvjTljCczaXSYS2bM6EDjGZh1nSYysKs6SjZFcSwe/ce9osfvfNWEeeRuB4LHhznsht9PX685Xjr8cyMjPj4BJGx0RUiSwcYzcKs6TCVhVnTiXZXEBliz569dCOz5tGd/F944QV67p5KHTf+4hccx3Ec9/ePPvLSfwUAGo0my5KlVvPnbEdXiBQdqbKMBFJM6jCVhVnTQVcISYjBgwcx6B+uo3Jd2xk9rYrDhw9XVVVNnDhxxPDhW7dtc+rRcsBxQEhHe/uBgwfEFD/QFeTVQVfwrsNUFmZNB10hbCH27i0vL983aNBApvzD6R7y7jvJnTumbrnppnfffffMmTNNTU0ffvjhxIkT+cd76r+ixQ9TSorJaAzm87KahVnTYSUFSyiFriCXDrpCBITYu7ecqeKH8yzrQlOP7N6z58YbbwSA7du3d39OD6UO99eW5uaWlhZzpjkuLs49NqtZmDUdVlKwhFLoCnLpoCsoJ8TeveVUlgXz4FXInVsbjibI7t279+zePXv2bAC4/vrrDxw44KVOTtxuGyQADUcaNBpNdlZ2TIyoB9byYTWbS6XDVAqWQEdCKfayMGs66ArRGKK8fN++fRUDBw4Ir3+4PtnJUb1waYK0trZyAN9++23riRPAcX1ycurq6lwH7wJ4mrako73dfsCeEB+fmWkWGrnLVDaXSoeVbI6uEIE66AoYwhvl5fvC23nFq5DzWhvuTZD6Q4eA45qamgCAEJKamlpXV+d+rPf+q9NnzlRX709NSzMkG0R+YHQFeXWkkmIqC7Omg66AISQIsW9fhWNZfv8QqpALFTwqKyr4RtDe3s4BXDZy5P+2bBFT8OC/HmtqamlpybJYdDqd41IE8xnQFeTRARazMGs66AoYQtYQDv+Q2Ty6U/rK554jPSfNv43D00Zvr2L2AgBC9DqdJStLRVwfWOt0fugKsuj0SKGOFx10BQzBdIgBA/rL5h8en+zkvQni8npVUdEBu72ysjI7O/tQfb1gqcN9CpPzbW21tbVJiYkZGZnBfGDWsjCTOtJ8ZdnL5lLpoCtgiIgPUVFRKVvnlduo3J6ihfepR1w8YNu2bUmJiRyAWq0WU/Dgi5w8derUqVMZmZmJCYnuH5jJLMyaDrqCdx10BQwRLSEqKipBls4r4Qq5p9aGp7eONjYePXo0PS1Nr9eLv9uD/9p45EiLpsVisWg0Gn8/A5PZXCodhlKwhFLoCiHVxxDRFsIlSmVlVVXV/osu6hc6/+jO3n/961991jbEFDxi9frzbW0iCx49CdZpa1xsrMVicaQVJrO5VDoMpWAJpdAVQqqPITCEX4TIP5zmrXJtUvhqgrh3PZ0/fx6gp0biWPDwyvVcEv5tg2fPnauuqTEajCkpKSI/A7qCPDoSSqErYAgMIU+IysqqUBQ/nJ4mKzjdociCh+BzZ/0qePBfj7ceP956PDMjMzGRztmOrhBaHQml0BUwBIaQJ4TIKFVV+0Hq4kd39v7LX/4CXrqn+F1MXvqgfPZP+f+q0WgtWRaN2lvxA11BNil0BQyBISI6RL9+BZL4h/O8Vc49UYKtDeEmiPcWhtBkVpxLJvNwbHv7hQMHDsTGxmZnZQfzOVnL5qzpALoChsAQCgrhKcr+/dWSdF4Jjcr1MOO6l4KH93oG/RAeSx0eCh780OfOndu/vyolJZX/wFreBQKmsjBrOoCugCEwhIJCBBll//5qh0LA/iHQ5vBUDPdS8PDWEAmu4MF3r+aW5uaWZovZLP6BtQ5Yy+aMdx+FVFkefQyBITCEF6qrayCI4gevzdGTybzMuC7YLhF/q3lgry4hDjc06HU6s8Wijuk+efayuVQ66AoYAkNgiBAGqq6uqamp7ds331//6HUOLwbgx5gr/wseroiwkLa2NrvdnhCfYLFYRH5gdIVI0ccQGAJDyByourrG384rt94qTzdzhKzg4e4uIGQt7oZ0+szpyqrK9LR0o9EgyWAzxl1BGd9+DIEhMASDUWpqasGfzivheavoOiMFD8cWdykgpKnpaHNLc5YlS6/Xe71egK6AITAEhpA/RARFqampra215+fn+fQP4VG5nrzBexNEmoKHZ4MRKLcAcABdnZ119XVxsXFmszmAB9Y6QFfAEBgCQ0RtFEeI2lq73X4gL8/qxT9c2xx0yVNPlB9NEH8KHk7wHkwrcggWDXT23NmammqjyZSamgpunzdCXUF5X0oMgSEiJYQ8UZj9ILW1di/Fj27n0Gq1Fy5coHt4KniIHHMVQMHDk7uAkLW4GxK/DXT8+PHjx4+bMzOTkpIDHqpMQVfAEBhCqSHkiRLpH6S21g4eih/E4RZffPHF1q1b6UkQ0j2VSO8q/5W3LrjR51tBvrpuEHpLq9VmWbI8zdmOroAhMIRSQ8gTRTEfRGQUqzWX7x9OZkIIeeutt+rr60HQPHy5gk+b8f3q1RUCsJC42LisrCxprz5+KTEEhghXCHmiKCNEKAI5/MO1GULDrFq16tSpUyCQ2ANvgni3Cm+7eTrKbbvLRseiyWRKTUkVc10U841RxgfBEFEVQp4oygghcyAHarU6OzsL3J3DcUL/+9//fvzxx7a2Nhcz8NcwvJmCX80Rt1fwZB5urRC6mpmZmZSYFIqryb9uIdWXLQqGwBCRGEUZIWQOJBKVSpWcnJyUlPjgwgfBk3NQCCGffPLJnr17PRqAoDd4MY/grEKkT3h5S6PR9Mnuo1bz7pwXjWK+lMr4IBiCnRDyRFFGCJkDSUVCQrzRaFSpVNQ2wLtzdO9ByNvvvHOovl58ayOotoWnd7we5WVn97di4+Jc5mxXzJdSGR8EQ7ATQp4oygghWxQ50et1RqNRq9U6PIMi6l5zejnWrFlz6tQpYW8Q5yjeDcP3bs7796657exxI++tlJSUFJPYB9aKuT6hRhm/LgzBTgh5oigjhGxR2EGtVhuNxri4WBfPoPgxxS4hZOPGjdu2bWu7cMF3a8Mt7/s0m4BfwXOLpHfRw2p2VnZcXJz3Ty3y+gSMYr73GIKdEPJEUUYI2aJECiqVKjEx0WBIBoAHHxSwDfDLOboPIOTTTz8tLy8Hnw0GL+YhhWEIO4SbkQi+xV/V6fXZWdnBTFvi/XKFQlb+KBiCnRDyRFFGCNmiKIaEhPjk5GS1Wv3Qgw952S3Ax3oQQt577736Q4e8u0KAVuH9fa/HetlZ8C3HQkJCgsVs8fciBHDp/EUZP2AMwVQUZYSQLUqUoNfrkpOT9Xq9d8+gBOgcAEAI2bNnz7fffus0cpfnE351TPnrMcKbfe7mstF5FQDS09ONBiNv9pMQopifFoZgKooyQsgWBQEAtVqdnJyckBAvxjMogTtH9/GE/Pjjj5s2bRLf2vDLUfzus/LylgjzIAAarTYzIzM2NjbIyxLM4exEwRBMRVFGCNmiIGKgd2moVKqHHhJrGxC8c3SrEPLPjz+urakRzupBtzACsRDxvVVCnVdxsXEWi0WlUgl+2OCvmE+UkSOUEUKeKMoIIVsUJHji4mKNRqNarX74oYf9PVYa54Cer8uGDRuam5vBzRX8tgoxe3ndw8vOgm85LfR89U1GU1pamiTXx+VChRplpCG8VkyFkC0KIjFufzStVms0GPR6fQCe0S0plXN0yxGybdu2TZs2XbhwgXgyAA/pPrBeLOHNPndz2ei86rJzZkZmUpKoaUsU8+tVRgh5oigjhGxREInx84+mUqmMRmNCfHzAntEdVlrn6BYl5Jtvvtmxc6f31kbo+qxcNwi+5c+qRqPJzsrWarWSXyv3S4ch2ImijBCyRUEkRuo/WmJioiE5WaVSPfxwULYBIXKObmlCPvzww0OHDgk6RGAtjMAtRHCjd89w3g4A8XHxnoofYq5GAEcxGAU/CFMhZIuCSIy8fzS9TpeSkqJWqx95+BFJBEPoHNDznS5dt+60+7QlIg1AzF5e9/Cys+BbTgsunVcAQIjRYHQpfigmQeAHYSqEbFEQiWHpj6ZWq1NMJr1eL5VnUELrHN0xCNm0adOOHTva29vBq3kI5//Aeqg8mIrgDp5WXXbm72CxWBITEiW8RFJJhTGEPFGUEUK2KIiURNRfrHte9MREaT2DIodzdEci5IsvvqioqPBmGKHrrfLS4HDZKPSuY5W/oNVqs7OyPT2w1mXnkKKYKMoIIVsUREqU9RdLiO+eF/2RR6S3DZDTObrjEfL3v/+9oaEBgmthBG4hvt4SWHXe7rJDXFxcdlZ26DKFYjKdMkLIFgWRkmj6i+l13fOiP/rIo6GLIrdzQM8P74033jh16pQfVuHzfb56wO0PfzyDv5Celm40GgO7FKFGGSlbMdcKkRj8i/XQPS96bGxIPYMSBufoDkzIzz//vHPnzvb2duGeq0CbI8Kbfe7mstF51WVnTzv0ye7jmLZEMZlOGSFki4JICf7FxNE9L3pyMgDIYBsQRufoDk/Il199VdlT/AhzwcNrg8OTl7gs6HS67KzswB5Y635xgheJhhCyRUGkBP9iEpEQ3z0v+qOPyuEZlDA7R/dJEPLuu++2tLRAKM1D0Am8vOVp1X3BsYNjS0JCQpYly/tHDu6a+UYZIWSLgkgJ/sVkQa/rnhf9sUcfkzk0E84BAISQffv2bdy48UJ7uw8DENzmssm7Au8VRLY/fHmGu3kAQEZ6RgDFDzGgKyBhA/9iDOCYRER+z6Cw4hwUQsjmzZu3bt0K3nM+8wUPxyfSarUWi0Wv0/t1EcTvHBjoCogw+BeLBOhdGiqVKly2Aaw5B4UQ8tlnn9nt9oguePA/TlxcnMVsiYmJQVdAwgb+xSIcjuPi4uJMRqNarX7ssbB5BoVF54CexLRhw4YzZ84EYhIemhd+W4jXVfcFwT4rx4LJaEpPTw/+soQadIXIA/9iEY7PPKzVak1Go16vf/yxx+U5Je8w6hwUQsjOXbu2btkiXPzwXuoIV8HDubXhsgAAZrM5OSlZ8MMGcanEgq4QeeBfLMIJMseqVCpDcnJSUhIjnkFh2jkohJCNGzfu2bMH3HO+/z1Ugj4hxi08mYf4PivHMp22RKfTSXiVXEIgkQH+xSKcUOfPpMREg8GgUqmYsg2ICOegEEL+9a9/NRw54nfPlYdX1w2+3nJaCLTgwV+Oi4vLzspSqWJEfnw/LhbCAvgXi3DCmBs5jtPr9WmpqWq1+vHH2fIMSsQ4B/Rkz7fefvvM6dNiSx1MFjz4y6kpqZI/sBYJOegKkUx4k57P6Gq1Oi01Va/XP/H4E/KcUgBEknNQCCFbtmzZs2dPb/HDe6nDU8HDS5+Vy2poCh785aysrKREUQ+sRUIOukIkw7greEelUiUlJRkNBpY9gxJ5zkEhhHzzzTf79++XoM9KcKMsBQ/+skajyemTI8MDa6MadIVIJqJdwScJCQkpJpNKpWLfNiBynYNCCPn3v/99pLExogse/E+UkJAQ0jnblQxes0hG2a7gHZ1Ol5qSotVqn3giAjyDEtnOAQCEkMrKym3btwsUP7y6QjAFD08W4r4gvuBBoX+OjIyMFFOKVJdICaArRDLhLTWHK7SYE1Cr1SkpKfFxcRHkGZSIdw4KIWTr1q17y8vbL1zw0cjgr3o1FY8bQ1nwAN5XLTc3Nz4uPuhrwzzoCpEMukJgqFSq5KSk5ORklUq16IlFEp6VPCjEOSiEkC++/LLu4EGpCh7e3SJ0fVaOP4per++T3cf7A2uZBl0hkkFXCBGJCQlGo1GtVkeiZ1AU5RzQk4L/8Y9/tBw/LkfBw2v9w/uCl2XgfXE5jjMYDBazhbniB2Ong/gFukJY0Ov1RqMxVq9ftChSPYOiNOegEEKqqqp+3ry5vb0dBG1CeKtkNXP3hcAKHvxli8ViNBiDvziiQFeIZKLWFVjIZp7OQaVSpaakJCYmRrpnUJTpHBRCyLZt23bs3Omt4CHCVHo3+tNJ1bvqtoP7zu7LIGQeGo2mT3Z2bGxccNclqKOR8IKuEInnYDQaDcnJKpXqyUVPSntK4ULJzkEhhHzy6adHGxsjuuDR+2fiuLj4+Jw+OTExQtOWoCtEMugKyjuH+Pj41JQUtVqtGM8AgBEjRijfOaAnHb///vtnzp4NpOwhuDGggodgn5WXZRAyD7qQkpJiNpuDvjaITKArRNs5qNXq9LS02NjYJ59Ujmfk5eVNmTKlb9++UeEcFELI3r17d+zY0d7RAbIXPNx3cN/HfRmE+qz4CxaLxWQyBXllkCBBV8AT4KNSqUwmkyE5WUmeYTAYpk6dOnLkSADgOC6KnINCCPnhhx+qa2q82YCXgof/nVShKHjwN2k0mtzcXL3ejwfWIuJBV8AT8AtDcrLJZFKpVIufXCz5KYWLyVMmjx8/PjY21nFNos45KISQzz7/3HvxA0CgMM5UwYO/KT4+Ps9qJSpVcBcmukBXwBOQkNjY2PT0dI1arSTPGDho4MyZM00mk8sVi1LngJ7U/OGHH/osfoCzE7BW8OAvpaelZWRmBnNZFAO6Ap6AbNB50ePj4xcvVo5nmM3mmTNn5ufnC17P6HUOCiFkx44d5fv2dbS3R3TBg7+Qk5NjMBiCui5sg64QnScQ9o9P4Z+GSqUyGAwpJhMAKMY29Hr9lClTxo8fD56vebQ7B4UQsnHjxpraWmC+4DF2zJgff/oJhAoe/C2xsbE5OTmSP7BWBtAVovMEwv7xKX6dRlJiYlpamkqlWrJ4SehOSWbGjhs7ZcoUfklDEHSOXgghn//3v01HjwbS4PBn1fuCl2UAGDN6NF3Y+OOP3Zs8N0CSkpJyc3NdFMIIukJ0nkDYPz5FwtOIjY1NS03V6XRK8oy8vLzrb7jevaQhCDqHE4SQ6urqXbt2CRY/wLt5hKbg4ck5OI6jjQ/w1XllsVhkeGAtukJ0nkDYPz4l1Kfh0Neo1SkpKUlJSUuWKMczDAbDDTfc4KmkIQg6hwCEkJ07d+7avZvBggffOeiCU+eV54W+ffsmJCQEdkHQFaLzBML+8eU5B5EhVCqV0WAwGo0qlUoxtqHX68eNGzd58mRC/PMCdA6PEEK++fbbQ4cOgYwFD599Vu7OQZd/+uknwYIHfyEhPr5PjusDa9EVovMEwv7x5TmHAEIIHpKclJSSkqLRaJYuWSrFeTHB8OHDZ8yc4bOkIQg6hzdovv7PJ5+caG31q+DhqcERfMFjzOjRJSUlCxYsKCkpWbp86TNPPTN//nz6R+QAfqL9Vz1/VPdhuxzHpaWlmc3mUBc/ojwtRvnHl+ccpHIF72i12oz09Li4OCV5hjXPOmPGDIvFEvCfSS3tCSkMelkJIdU1Ndu2bm3v6ACOA0I4jiOEcNR4CSEcB4R0vwVAAOhbjlWqBT2HOBRoiO4kTkX4W5yX+RiNxhUrVixcsGDp8qUAcO+999LtY0aP/mnTpu6TAehtgfK2NDU1NTU19cnONqUE+MDaKE+LUf7xZTiHwPQlNxKVSpWRnp6cnLx06VIAxy85sjEYDDNmzBg0aBAE93dE5/BNd50gP3/Lli2VVVUuqR96fMJhIb2+0nM830J6F5w9w2Eq4MEwnDYuXNjYWAEnYeGtCxYtXgTO5sEBbNq0iXM2j94FAA6grr6+sbHRmpcXGxvr/mHDRdjTYpR/fBnOgRFX8HlUamqqyWiMiYnpto3IR6/Xjx07dty4cYF1T7mAvVX+QQj58ssvm5qawlXwGDtmzHPPPQc2mw0AFi60fvQRANjt9hUrVtxz773Q021FfwGbNm0C4P0a3BY4jktISLBarcJztktK2L9p6AoMuoJsRiL+qMSEhIyMDI1Gs2zpsgCisMmw4cMmT55sNBql+g6gc/gNzeMff/zxmbNnAx5hFXDBo9s5KDYb2GylpaV2u10FcLS52cU56Oqmn38WLHjwN6SlplqysgK+JmH/FqEroCsEf4hGo7FYLPFxcUryjMzMzOkzpvs14lYM6BwBQgjZtXt3ZWVlB52zHTwPu/K66r7gfZDu2DFjSkpK2tra+CdjtVptNltxcfH9998Pbs7BcdzPmzd7bHjw1rP79ElxK36E/RuCrqAMVwj4U8gQS6VSpaelmUymZcuU4xl6vX769OkjRoyAEHyF0DmCghCyadMm+4EDLm0LMV1Y7gvuDRT3fRzOUVhYCGVlZQCgBzgPAAAq1f333bdmzRq6/6KlS1Y88+xdd93lGHn1888/07c8DdsFjtNotfn5+bJNW4KuEM2uwMhRKSZTWlpaTEyMkmzjiiuuGDt2rCQlDUHQOSSAEPLV118fa2qSoODhq8+KOgcAUPOg3uGAZvxFixapAe6/f0EMqFaWlDz7zO/mzZvnaIhs3rxZsOABvC0J8fH5+flBztmOroCuwOxR9JD4+PisrCytRqMkzxgwYMCMGTMkLGkIgmOrJICOeqqvr9++ffvZc+dcR+727CQ4Khc44UG6AsN2e77uCxYsAICSkhJqG+7+AQsX3g+t0Hq+E/SdHV0uZ3vZpZdyAP/bvJmOuHIdvwsAAKfPnNm5c2dGZmamhznb0RXQFWQIFLpYGo3GbDYnJSYuX7YcAIgihtwaDIbZs2fn5edxHBfq7ye2OaSEELJ7z56qqir+nO0gacFj3NixdIH+4VatWsWveeh0ura2NueRVwa7fXtjYyO/+EFfN//vf3wpT0Ow8vLykpKSpLpEPmHhC4muIEMgOWPxj4qJiUlJSclITweA5cuXB6DGIHq9vrCwcNy4cSDXLwidQ3oIIT///POBAwckKHi4Da9ycQ7KqlWr2trbQdWli9H1GonNBjabY58Fv/qVi3PQ1/9t2eJl2C5diNXr8/LyNM7TlgQAC182dAU2A8lzlNFgMJvNMTExivEMABgzZswVV1wRupKGIOgcIYFm+bJvvmlqapK24CHoHHR59erV99xzz5o1a1xGXoGtFKygKi6+d8ECh2esKy29Y+5ch39s2bLFpeDh3hBJSk62Wq2epi1h4YuErqCkQNLGio+Pz8jISIiPV5JnWK3W2bNnh7qkIQg6RwghhNTa7Tt27OgeuSvFHR7jxo41Go0EoLmlxRHIMXoKOI46RyFAmfPJ2Gy2I0eOrF27FgAWL13c1cURgN//7ve333EHPZ7juK1bt4KQZ/AX5Jmz3R10BSUFkjOWRqPJyMgwGY225bYADmcTg8FQNL1o4MCB4Urg6BwhhxCyZ8+e8n37wNkkXCzk66++AoDJU6aAe0OkZ08AGD9unNFoXFhcvP2IvezTspaWFnB2DgBYs2ZNZ3t7R1dXobN/0JFXjRUVAAB6PQCsXF2y4ncrbr/9dq5HZOvWrV46rxym0regIOA5291BV4jyQCE6KiYmJjU1NS01NSYmxsbruY1o9Hr9mDFjCgsLiZ/zoksLjq0KOfSvO3jw4I0bNzY0NICXWRF5h7hOaeW8w0qDYSFYobDQZDK18BoflLvvueeVNWtiAMpcuq0A2hYtWgkLFy5shdbzAHpwHXgFw4cPB47btm2b04grxxAs6k+EVO/fH5+QYLVa1WofXyF0hSgPJOdR/EOSk5OzLBatVqsYzwCAYcOGFRUV0ZJGeP/Rj20O+aBm8Mknn5w9dw6EOqm+/uqrKyZP9l7wGD9unMlo5ABg4UJYubK4uNhut5d9X9bc2OxocziKGa++8goAtLW1FxZe/k1ZmdZ55BWsXGmzWp+2HzxYf9DR5uA4ztF5tX37dnD8Gj00RNJSU80WS4jmbEdXUGSgUMeKjY3NslgSEhKU5BlWq7WoqMhsNjOSsdE55IYQUlVVVb5vHx25Cx46r8CDedDequ6fhM1mA6DmAQBl33x7rOkogOvsI6+++mpnZ2dXV5dGo7nQ1sb/e5eWlgJAcXGxTqe77Ze/BGfnoKs7tm/32XklOG2Jd9AVMJDkR8XExGRnZZlMpqeeeioAQTZJTk4uLCwcPnw4U7k6qJuEkQDgOK6goODaa67p27ev03bgtRh69nRZoDvYbGC1WkGlgqefBoBSAKvVCgDAdQFAqtu9e/Pmzbvnnns0Gs2dd96pdUwrogcAKC4uLi4uLi0tpcOxNqxfT9986803337rLbp8ybBh7g7W/f+e1fq6ur17954/f95xwj5xvywyHIKBZA4k51GZGRmDBw1Skm3odLpJkyYtWLCANdsAbHOEF0LIt999d+zYMd+DdHt2mDB+PAD87bnnbDbbMgAb/a+4uNhuX1dW1nTsWGpqKiFw9GhTrxXxurDWrl17oa1tkttt5yqA4rvuos7RWHeQ47qA4zJz826+5RaqcPr06erqaoeap86rhPh4a16ey5ztAXzHAvtaYiD2A4UiVkJCgjU3V6vVKsYzAKB///5FRUVhGXErBnSOMEO94dPPPjt39qyYQbrUOQDgOaPRWlpqt9tpzxXts5o2bdqiRYtoM4IANB49Cs7OwQGUrl1L+6wK+SOvVKp5d965Yf365saajtZ2Eht7nDuXBFpzbt7Nt9zCdw6PI694q6lpaRaLxdNHZjy1YaCAA8kZix6l1WqtubmJiYlK8oyMjIyioqK8vDyWkzOOrQozXPfYJbK3vLympqa9vb13PBXn4bmzFJuNljdsTz8NXV3UP6ZNmwYABoOBGklGejoH0NjYyI9YXFzMAawrLXWMvLJarYftBwFA1XbBkJR5lpzrJB3GduA6uSGDBzkOdAysSktJaTp2zHXkFW/1WFNTU1NTTk6OwWAQfxECuG4yHIWB2DwqJibGYjanp6c//dTToJSJp3Q6XVFR0bDhwyAI85YHdA4moN+SQQMHbtmy5WBdnctoXY4/SLeH3/zmN88//7zVarXb7QA2SmdnJwCsXLmS7tPtHxkZAORI4xF+xLlz53IAr69b19bWZrfbaaRzoNOr1Pq/PvMMPNa+sHVZfPp3X381aMjQ7mN6vGHIkCGtra1bt21zH63Lf3TtwYMHjzQ05OXna/2ctkR5ORQDSRsrIz3dYrHExMQ8/fTTirAMAIBJkyaNHj1a5klEAgZ7q5iDEPLd9983Nzc7VoHXZ5WZkZGXn6+OieE4rqSkpKOjo6urC4A88MD9JSUl8+fPT01NtdlsYDBAa+vTNtsdxcVgt9sBysrKjhw5wh92RV9ff/11ALhw4cKd8+ZtWL++rzV3b/NRVWsrdIGq6w9P285fKC5e0b//jJkza2pqAAA4rrCwkJ5MXV1dVVWVz86r+ISEvLw8R8spgGuivByqvEDyxEpMTOyTnR0XF/f000/7G4tZcnNzZ82axWxJQxBsczAHbWEcOHCgoqLCZc52ADjS2Nh49GhOTk6f7Gw63foLL7xAK9LzFywAjrPZbFYV2FtbAaALoLS0tLi42Gq3U/HStWuLi4v54ejsI2+88QZdPdZ8rPD0+TOXjGjau3fIlO8SE8pan3j09IMP9x7A6zHLzs7OzMystdvr6upcJ2rntT/OnD69a9cus9mcmpoq+HkDuET+HoKBZA4k+VFarTYnJ8doMCjJM5KTk2fNmkVLGhFkG4BtDpYhhJTv21dTU9N75wevWq7T6S7q14/Of86vgQPAyy+8sNRms9lsYHvaBl0AQGvmK1asAICqiopnV6xwaXlwABzHbVi//q677967Zw8AlJX9NHfuTd99/XWfnJwfZs265sefamtr6e6FkybR03B8ec6fP7+3vLy1tdXTyCvH9rz8/Pj4eC+fWnk5VHmB5DyK47iYmJjMjIysrCwAeObpZwKIyyA6nW5S4aQxY8YA8yUNQdA5WIcQsmXr1vr6escq8EZeGZKTCwoKaCHB4RwcwIsvvkBvDOm+Z7C4GHqco6KiIg6gT//+/LlyOZ6JvLlhw53z5lXs26fTak6fPn2o8Uj7mbOXjR1XW1tLd3I4B3064fz58+mBx44d27Vrl8/OK51eL2baEgcs51AMFOpYqampuTk5MTExzzyjEM8AgFGjRk2aNClSShqCoHNEANQtvi4rO3nypPsdHoQQs9ncJztbFRPjcI6Sl1+m1XJQAXR1G8iKFSvali49f//97Rx37sTJdq4rf8AA/ly5QF97ljo6Ok6dPPmPf308uP+AiwYOrK2tpTsUTppEPQMAWhoOc8ClmLPuvfdeuqW2trbWbnecibuF0O1JiYk5ubnKy6EYSKqjkhITs7KykpKSlOQZubm5V111FTuTiAQM3kMeAdA+0CsKC4cPG+b4pzrHe7ehoWHrtm1NTU2OQ2gJxGq1WumchjabDaCtrU21ZMkfnl9JCDkPXGcM+eyzz7KzshxFDqegAO+9915aenrh5ZMaGnrH9Tqsa+mJ5iePHu1Sne04ebq54dDq1avpdqvVOnHChN7H0Lrd3EjXTp46tXvXrtbWVv5QY04Enq6PX0dhIJaP0ul0+fn5AwcOfO655xRjG8nJyTfddNPcuXMzMzMFr09kgW2OCIMQsm/fvsqqKscq8Nof8XFxuVZrYmIi/cfbSy++6HiXA1gwf/7atWsdz32iI6/sdrvFaBgyarSneaveefvtX95+e0tLi91upxsnXX55SUmJFrizTz7Z8cQTbW3nz3e1Ll36f1SW62lVnD51qmr//tbWVt5W1/oHXejbt69erxf8vAF8PwP7SmOggANJGCsmJsacmZlpNqvpiFtFoNPpxowZM2nSpPDOiy4tyvkkUQUh5IeNG5ubm93nSQQAk8mUk5Oj1Wq7C+Yvv7yg52mAa9euNZvN9BbCjvPnzxxtPN7Fqbu6zp48+Ye//W3D+vW33naba+cVAMdxp0+fpkdxHEed40JbOwddWvjjk7Zzanjs0Qfbk9LT7733Xodz0OgNR47s27fPZ+dVfFxcn5wclcpHI5jxHKq8QHLGMhoMVqtVp9MpxjMA4JJLLpk2bVpElzQEQeeIVGhr479ffHH+3DnBeUqysrIy0tNjYmI4l6zNcY4pDm02W3FxsR5gn91O7z9vrKrI6Nd/zq23ujjHmTNnaJ0DOO7yyy8vKSmJA+54W0eBtc+J1iPn2+DC+fNPtp78fXr6PffcAzzn4Diuo6Ojvr7ebrcLegbfS0wpKRkZGX5dB+Ula5YDheio+Lg4q9WalJSkJM/Izc2dNGkS45OIBAzezxGp0K8jIaS6pqaysrKjo4Nznqfk0KFDx44ds1gsKSaToIJep1MDXFRQYFu27I477qAbVUmGioqKL7/48ujRxlvmzOHv77hRnK7Ouevul156qSY5Ocd+oAlMBlXb8r+tXPrQw/cArFmz5u577nnllVeOHapPzcq+6667cnNzMzIy7AcOHDlypPtWj577z/l3frQ0Nzc3N2dZLMkGA7CdQzGQJLFiYmLy8vLS09LoJCLKgM6LPmz4ME8lHwWAbQ4lQAjZvWdPbW0tv8/K0QRJTEy0WCwJCQn8Hqj333mnpbVVDWBKST3afMxms61YsaKtrc32lO2h3y7kWk8cB65///6OuXLPnDnjqHNcPnFiSUnJAw88cOzYvjOntB///aOLhw5pb28/0tR0/vSp2+fdvWbNmpbKw6aLLI2H62M4DgAeW7ocADiA1tbW6urq06dOCRY8HA0RjVqdk5vrMm0J4zlUeYFCHYuOCVSr1Uqar3DSpEljxoxRXveUC+gcyoEQsvHHH1uam93NgxCSkpJizszUaLX0l72utHTgwIGtra12u12n07W1tc27664N69eT9s4ly5bYnrKdP3vuUHOTqu1CwaDBN918M3UOAOA47vKJE6lsSUnJnDlz7PaDoOr66atvRk8cr9Fov/vhBwBY1Nj4EJzsau0iCbEccBlZufPmzXP4VuORIxUVFd46rzgOAGLj4nJycrw8cFB5yZrlQBIelZyU1K9fP51OpyTPYHxedGlB51AUhJCGhoa95eXneA+sdbwFAGazOTMjg6bmdevWDRw4sLy8/Pbbb6cl8Q3r12eZLTX2WiBEzXFLDh/+NYEzFZWdmRmPLl5CnQM4bmKPc3Act2rVql//+tetra1dLS321taff/q+k4sBgLbFi+CJJ86fb+O4rs7OzouHXtLQdOzOefMcxtDe0XHo0KEDBw54KZ7T1dTU1LS0NDFfVOUla8YDBXCgTqfrV1CQnJz8lE05npGRGQHzoksL1jkUBf3ims3misrK2trajo4Oh3nQ4kdDQ0Nzc3NWVlZyUhK9h7y8vJyvkJScnGe1Xjh/fv6CBQsXLly5cmXxvGJNjb13D+cWwPz58zs6OjZs2HDfffcZAfr160enUASbTdUFf/j9H8gjD3F/fe6R4uKU/v35B6rV6tycnIyMjOr9+7und3SeapfrWT127NixpiZLVlZiYmJgFyTUhygykOSx1DExOTk5FotFSY8H1+v1RUVFw4cPhyCucySCbQ7FQgjZvmNHfX29+/PMoaf4odfpHP+6d/xD/80NG9ra2kClsi1btujBBxuOHweA/v37XzxkCN1n4oQJVIT/5eE4bvXq1ffdd197e/uaNWva2tqS4vSmc+3nTEmNzSdsZ08uV8Xokw133nmn05gtAOC41hMndu3c6bPzSq3R5Obm9t4LqbhkzXKgII/KSE/Pz89Xq9VKso0xY8YUFhYqvqQhCN5Drlg4jrtk6NCrZ840GY2OLY53T506VVlZWVdf3z1JiRuGxMRnbDZdsqG0tLS0tJRuJL23jBjdD7n33ntfeuklulx4ReEIrcbOdQ6+eOjQQQOe/dOf//CHPy5qrACA0rVrAWBdaanFYnl93ToASE5OnjBhQn5+fq8Wv5+tZ7W9vX3//v319fWCQ1Y4EQheJX+PUl6gkB6VnJw8Yvjwiy666Nlnn1WMbVit1oULF06fPl2v1wteGcWDbQ7lQwipq6+vqqryUvxISUnhHM0Ajvv00890Oi0AdNc2bDbdihUXDxkCAMBxEyZMMBqNC4uLtx+xf/jmh1TK8UXiOG7NmjX3/epXZ86cqaurazt3rv5AXUJyQkpq6pdXXHFv/aG1a9c2VlRk9O/feOAAADy3uqSu7hA9vqOj4+CBA4cPHxYsePDbH2np6SaTyfu3N4DvdmA/B+UFkiSWXqfr27dvSkrK8uXLAzsHBjEYDLNnz46qkoYg6BzRAiGksrKy1m7nFz+gxzy0Wq3FYomPj6fO8eabbzomKdHpdF0cd8011xw8cIB+VyaMH280GmHhwoWtra0A60pLm1taXNM7wCtr1syZM8d+0F72VRkA3HzTjc3Hjn33w0YAWLSoceHCVmgFSNCvfKFkxYoVjio9AJw+fbq2tvbEiRM8OeHBuzk5OZ6mLXGH8WTNciB/j1Kr1VkWS25uLgAoxjb0en1hYeG4ceMgykoagqBzRBeEkP9t2XL06FH+FsdyfHy8xWLRqNU0ib/91lsAcPMtt3Acd+bMmYMHD9JvS7dzAMDChdDaWgxgt9s/+OADKuJwDprfNRoNHfu7a8f25uOtOp0OANoWLbLRw1eupA/EXbFixS9vv53f7mluaaHTlnirfwDotNo+XkfueoHlZM2sK/g8KiMjw5qbq9frFeMZADBs2LDp06dHZ0lDEHSOqIMm2e++//7UqVP8LQ7SUlNNKSl049tvvcV3DgDgOG7C+PEmo2m5bbnNZnvaZrP1zJwIAB988IGLc3Ac9+qrr86fP7+9vb2u9uB/v/4CALobNDYb2Gy0iGK3H6irr+M7B12qq6urq6sT9Ax+c8RkNKalp/O/zCwna8YDBRzLYDBYc3MNBsOyZcsCi8sgVqt1xowZCpgXXVrQOaIUQkh9ff3e8vKOjg5wMw+O4ywWS3JysiM5O5wDOG78+PGZGRmrXlltr7GDwWBbuBAAinvM4/333wdn56Cvr7322u23365Wq/nz9TooLS0tLp437647wdk5aPGjtra2qanJR/uD4zLN5qSkJE+13ACuErqCyEP0er01NzczM1NJnmEwGKZPnz5o0CBMku7g/RxRCv0xZGdn7927137gANcz5xWFEHL48OGWlpb09PS4uDinIwkBANtTTx20HwCVCugk6j0PPKfmkZaaevTYMZeIjnvI6WphYSGUlZX1vFtcbAfoAoAN69fTLbZFNtsK2y1z5sTExBQUFKSlpdXX1Z08eZKD3hs+gOMIANezeqSh4UhDQ67VqtFoRF4Bv2DcFcJ1lNVqpZOIKMY29Hr92LFjx44di91TnsA2BwKEkJ82bTp+/LjLdvrdSExMTEtLu3DhQl1dd2/S+HHj6A5Gk8m2fDn0PLO2uLgYwF5aWkaAzC2eu6609GhTE7/C7VgqXbv2woULHMcVApTxItIqCB15VXGgIgm0JSWlT614ivaYnThxory83FPBg99MiY2NpY+tFo/yXEGGRklqamq/ggK9Xr9sqUI8AwCGDR82efLkKJlEJGCwzYGAo8FR9s03dOQun1OnTp06dSo+Ph54d3lTbLbl/KedO0brc8CVGgzFxcU33nhjWVkZvyBPKS4upuWNMke3ldUKdAQwwEqDYWFFhUGvb4XzF+CC+wnTdkZ388XlnAghHHfu3Ln9VVVGkyk1NZXjOMaTNZuu4P2QhISEfv36GQ2GpUuXBnYmDGK1WidPnpyfnx/wdyZ6wDYH0gshpNZu379/Py1+gHPW6F7muHE9bQ6O455//nm+gs1me/bZZ5csWQLQPXSKdmG988474FyToK/r1q270NbmiOE08goAABwjr266+eaTJ06Ul5cLtjNcxB2rAJCRmZmQkODySZXnCrIdpVar+xUUmM1mJXmGXq+fMWPGiBEjMB+KBJ0DcYUQsnPnzkOHD9NVlywNAOPGjnVsKSkp6ejo6OrqAgCNRtMO3P3zF2Smpi7paX/QZ9bSWwrffucdF+egr6+//joHcOFCm06rA8fIq25KoRSguFin0xVNn16+dy946KQCD+bBAajV6uysrBi1xxY2uoLIo/r06ZOfl6dWq5cuUY5tXDH5inHjxmFJwy/QORBhCCGbfv65hXeLH7iZB10tKSnp6ujo7OpSazQLFizgOO6FkhLoabX0lkDs9tKysiNHjrg7B31dW1o6d+7cDevXu468stlKrdbi4uJZ113XW+cAD57hIstbjY2NtWRlifzCs+wKcnZVOY4yGo2DBg2K1eu7G5SKYODAgTNmzPA5GQHiDjoH4hFCyJHGxn379p09e9axkZ+QHY0P6HnauWOHF0pKbEuW2Gw2sNng6adty5bR2saRI0cyMzMB4HBDg7t/cBy3Yf16fv8Vn27nAA+e4dlC+NtTTCaD/8VPxl0hpF6i1+sHDxpkNBqV5BmZmZkzZ86kJY1wn0tEgs6B+IAQUlVVRactoVscBQ/61eG3PxwLHMCLL6RaraV2u502O1QAlxcWTps27clFi35bXLzdbi8rKzt0+LCLcwDAhvXru7q62tvbCwHKAIZZrdvtdgDQ6XRWq9V7wwI8Fzz447syzWbHaONodgXvh6jV6r75+Tk5OUsWK8cz9Hr95CmTx48fj6kvGNA5EFEQQnbs3Hno0CHwUPlwd46XXnyB/+Wi/rFixYpFixY55ryy2+0bNmxwcQ6O497csAEAOjs7HXalBojR6ax5eX61MLysarVas9msiolx/7CMu4I8R1nM5v79+6vV6sWLFwcQjk3GjRs3ZcoULGkEDzoHIhY6cvenTZta3OY3BF7nFf+f9i+++KLVaoWDYO+yA3RPN9I9eHfhQli5EoqLC+32srKy+vp6vnPQpbfefBN4BXNdj3NAAJ7hsr3n3bi4OLPZTCv8nmA5v4fiKKPROKB//8TERCV5Rl5e3g033IAlDalA50D8g05bUrV/v6P44ZKZx44ZAz0pu6SkpLOzk46spfssWLAgMzPTceeHzWZzzFvyTVnZgbo64DkHfX37rbc6Ozs7Ozu1Wm1eXl6wniG0mpKampyc7N0/+DDewRVwrNjY2AH9+6enpy9+UjmeYTAYfvGLX+T3xZKGlKBzIIFA52yv2r8fQKj3iuPGjB3r+Nf9Sy+9pCKEA5i/YAG1E+olKoBlvJFXdoDX33jD2je/dn+1e/HjnbffLpo+vWLfPoHGjtAqiCt48HfLysrSarWMu0KIjlKr1bm5udbcXLVarRjb0Ov148aPmzp1KgThwYgg6BxI4NA52xsbG3u/RT1LHMd1Nz44DgBeKin51fz5jhz92iuvLF6yxObouaLzltjtr7/xRk6fPgBwgD4LxLn4cfLkyYqKCh8m4Wm7OC/R63Rmi8XlRxHpruDzqCyLpaCgIDY29sknnwxAik1GjBhx9dVXY0kjRKBzIEHRPWf7d9+dOHmSbnFJ4GNGjwZeanYk7lWrVtGWB/8JoytWrFj05KKFv124ffv2srIyu90u4Bzg2zP8sBYhC0k2GEwmk6fOK8YbJX4daDKZCvr2NZlMTy5Sjmfk5eVdfc3VFrd/ASASgs6BSAAhpKamprKqig6F6v5S8b5bo0eNAmfnWFtaeqH3jj8CwNlstu6RVwALi4tbAex2e1nZNzW1NdDjHJUVFZJ5hq/V9LS0+IQEMcUPNl3B+1FqtXrQwIFZWVlK8gyDwTB16tSRl47EtBZq0DkQySCE7Nmzp9ZuF6x8jB49mp+dOYA1q1bnWnMdxXOw2VTPPLNs2VLb8t5erHl2ew1AWVlZdU3NyZMnKysrhU0CxJmHuIIH/93sPn1UKpVf10HOTqfADizo29dqtWo0GurTCkCv148fP37ChAnYPSUP6ByIxBBCfvzxx+bmZkfBA3gLo0eN4ifo1atXAwDodDGdnQAwd+7c/Jw+S5bbAFSg6rItszmK52VlZdu2b6+srOzVFN3CCNxLOA4AdHp9Zmami5hfsHNURkbGoIEDY2NjFz2hEM8AgBEjR0ydOhVH3MoJOgciPYSQY8eObd+xg87Z7t48GHXZZY40XPraaxwhHRx3V3Exx3GlpaVdnZ10t976ud1eWla2ffv2yspKv3ql/NjNV3MkOSlJcNoSdlzB+1FJSUmDBg5MSUlRkmeYzearr7m6b9++mMdkBp0DCRWEkIqKipra2o72dseXjN9c4PsH8IZRvbZ2rW3Zst5nfvSMvJp65ZUX9esnrWc4bRexmpqWFhsb6/2Ds1b2UKvVF/Xrl5eX98QTTwQWhUH0ev0111xz6aWXYgYLC/hkJyRU0J90//79t23fXldXRzcSmosJAY77efPmyy67zP3AO4uLgV+Xpg+BAph65ZW9z3HiPVAWHKu87e679T531nEmju0uqy5H8d491tQUExOTaTa7PLnd53UIAEnaJXl5eRf166fRaJRkG1OnTh0/fnxcXBzaRrjANgciB4SQHzZubG5uBqHOq0svvZTf5uA4Djhu7dq1fAWbzfbs73530UUX9R7puUgOwRU8xNQ/aPGjs6djzS/k8ZKUlJRLLrkkLjb2iceV4xmDBg265tprsKQRdtA5EJkghDQ0NOzes+fcuXOuOZ/jOABHzwPfORx3m3cRUMeo+/fvH3jvk4jtYgoe/N2SDQaXaUtYKHvExsYOHzYsJSXl8ccfD0CWTYxG40033YQlDUZA50BkhRCyr6KitqbmQns7QG/yo/8fOXIk9DgHB1C6dq2KEhPDcdzMmTOr6Ngq3oFXTp36+X//G3w7w9N27xZCt5vNZhYeOAgAarU6Py+vf//+SvIMvV5/5ZVXTpw4EZMVO6BzIGGAELJt27aDjvkNAfgLI0aM4Of9t95665ZbbuE47tSpU1VVVS4HXDl1KsdxHMd98cUXnjqv/DCPQFc1Gk1Gz8hd74Suq6pPnz4XDx6s0Wgef0w5tjFhwoSpV07FkgZroHMg4YFWmL8uKzt58iS/z8qx4PAPR/7vdg7nPadOnfrQ9df3nzbtrrvv7urq+vrrr3t3CKzzylcLQ2C1Z6Ner09PTw+g+BFkuyQ1JeXiiy9OTk5Wkmfk5+ffdPNNWNJgE3QOJJwQQg4ePLh7926Xziu6cMnQobSfCnqcY39VlUvSr66uXtTYuLC1dbvdPm3atLnFxV1dXd99+y0E7BlCq+DJM4RWjUZjQmIiLX6EuhgeFxt78ZAh5szMxx57LLBADGI0Gq+99tqLL74YsxOzoHMg4YcQsm/fvn0VFcDPmD1Lw4YNA4dz7N/vktar9++nDxmE1tZigIkTLz96tPG2X/7yh++/D7zPyvtu3psjPXEsFgsIjdyVquyh0Wj65uf37dtXo9E89qhCbEOv10+cOPHKq67kDZ9GWATv50DCD80RAwYM+GnTpiNHjrikjO3btnE9/gHgdicH0McM2hxzttvt9vT0jKNHG8dPmFBfXy/qDg/eKgje4cFfpUc4v0tPDHhxDh0+rNNq0zMyfHZeBZAic/r0GTBgQFxcnGI8AwBGXjry2muvpSUNtA3GQWNHGIIWPz7//PMz9IGD7tVz57FYwHFTpkx5/vnnAYCoVMuXLQOgD6iFsrKyb7/77lB9ve8Gh6ftQRQ8+DsnJiUlJyf7Vfzw8qtMTU0dOGBAamrqo48+Kl6QcfLz86+66qqCggJMR5ECtjkQhnC0Cvbv37+voqK9vd2poQDd/64H/r3oADqdbtGiRY7nfJSWlhUXFjrpCt067m07f1WoOQI9ZyLY4HDZ+dTJkydPnkxNSdHqdODVFbxfGY1GM3To0NycnEcfUY5nGI3Gq6666rJRl2E7I7LANgfCKISQnTt3VtfUCBcqehamTJ7Mcdzq1avb2tqAN0ki2O0rpk2z5uXR3aYXFXVx3Keffip/wYO/arZY3D+pmN/gwAEDCgoKNBqNYmxDr9dPvHzixIkTccRtJIJtDoRRaDYZOnTod99913TsmOvMVD0L58+f1+l0jqMcLQ9baSlMmwY9uwHA6lWrAOCuu+/+7+efy1nw4K82HD6s1WrTfI3c5WdSi9l8ySWXxMXFKcYzAGDw4MGzZs0ypZiwqRGhYJsDYR1CyOHDh3fu2nX27FnBf8nn5eVlZ2WtXbvWbDaDCuw1drqLTqfLy8uj+xdNm/bH3/3u6JnT/XJy582b133boOeCh0C7JOiCB//dxMTExKQk7w8cjIuLu3TkyLS0tEcefiTIa8gOFotl1nWzsKQR6aBzIJEBIWRveXl1dfWFCxcABDqvBg8e/I+PPmpra3M0QSZMnHiovh4AOICiadOMf/p/Cw83tMbqoXxf/2nT7rjjjq/LykR5hohV8GQhXldTUlLUGo37h9VoNIMGDepXUKAkz9Dr9bOumzVq1CjMOQrAv8dkIki44Dhu4IAB11x9dW5ODkDPMCzewp7du0deeqnDNubceit916HwtE63srQ0VacHq7Xis89uf+ThuoMHJ0yc6NiD8GV7Vp22e1rtOROno5zfFVxtbm5uOnrU5aaPgoKCGdOnK8w2rrrqqsVLFqNtKAZscyCRByHkm2+/PXbsmGCLIT09PTc3lxBSV1d36NAh+u60adNK1649ceqUNiYGOjqW2WzFxfOq7TVXTZtWNH36nt27ZWhhuKzyz1qr1aampRkMhtGjRsXHxz/80MOhvoay0bdv31vm3JKSkoKpRkmgcyARCSHEfuBAeXn5mTNnAAQ6r7Kysrq6ug4fOkRXp1111Q/ff9PW1lGxb58hOXl/dTXX2XmivBzMmf0GDe7Tpw8EV/DwPsLK487O8rNnz/7L//0lJNcrHBiNxjlz5hT0w5KGAsHeKiQi4TguNydnelHRoIEDNRqNe+fVofr6hsOH+b1PY8dfXllV1dnZdbS52WQypaamdmVnq2iZgdep5dR3JNR55dIr5fKua+eVSyeVy86iHywYWdCSxtJlS/sW4OM0lAmOykUiGJqVBg0atHHjxsMNDU4taOfb/ei2e+6554cffjhx4kRNTc2zNhuoyMLf/NaxvyTPnXWE9jRIt3csr1NY0tM6ifg8e/nll0+bNg3v0lA26BxIxEMzLwD894svWltbBe/82FdRkZ+fH6NS7d2715hovPjii5969lnS0ZmSntZy4oTjjnSfd3gI3lLu8Q4PoVUAtxs+gG4jABDRxtG3b9/rZl+XnZ2Nd2koHnQORAk4nMJut2/fscN92pKDBw4cOnQoPz8fAPIvyj937nxWdnZDQ0N8YmLLiROipiEBN2vp3sPDqot5eNk58ueFNRqN182+bujQob++/9eR/lkQMWCdA1EOHMfl5uZeN2vWoIEDXWsIhHR2dFRWVg4ZOjQ3N3fv3j0GgwEAJlx+ee8uIFy6oIf7Lni4jMrlhXYICAzSjfCCh16vnzZt2tJlS4cMGYKeET1E/D92EEQQQkhZWdnRpiYAgSFSKamp/9u8+bZf/rKrq+v48ePle/f6dRtg7zZPu/k5Kpeuzpo1689/+nPoronkXDbqsqKiIhxxG4VgbxWiTGjx4+jRoz9v3nz27FmnqXYJaT52zJqXV1dXl5mZSfd3qoqHteAREfQt6FtUVNSvXz8saUQn6ByIYqEZ7eqZMysrK/fs3dt+4QLHm56dcNzBgwcPHzpkMBpdBmKFq+Ahy1UJFqPJWFRUNHr0aPSMaAadA1E4NLtddNFF27Ztq6yqcvGGjs7OY7RHy22okzfPcNkuojni0BQelUt35vVcsUlRUdGkwkk44hZB50CiAprphg8f/tXXXzc1NTk9j9atk8pbnxUAhOwOD5YZMmTI7Otn05IG2gaCzoFEEdQX6uvrt23ffubMGYE7PzwXPAAEvETygkfYLo1nsrKyZl8/u1+/fnfdfRd6BkJB50CiC5r7srOzd+/eXVFZ2Xvnh+deKZfV0BY8WEIfq79+9vWjx4x+9LFH0TMQPugcSDRC8+DFF1/806ZN9trawD3DZXtwBQ/ZPr4YJk2aVDS9CEsaiCDoHEj04pi25Msvvzza1BT2ggcjFBQU3HrbrVjSQLyAzoFENQ5rqKmp2b1nz5kzZ6QqeABPxGfBg5FRuSaT6dbbbu3Xr9/9D9yPnoF4AWcfQRDgOC4vL+/aa665ePBgEJyGpHdFaBoSx3Yx8647duO963Ks/Ohj9UVFRctty/EJ4YgYsM2BIN3QjDlkyJBvv/22/tAh4XYGAPgqeATcHAkXo0aNmn39bCxpIOJB50AQJxzFj/988klra2soCh6eaubyf9iCgoLZ18/GedERf0HnQBBXHDZRXVOzdcuW9vZ2QZMA8FXw4Gn6LnjI+xlNJtPs62cPHToUSxpIAKBzIIgwNJ/2zc/fsmXLvooKEDMq12XV+6hctxFW8nwufay+cFLhpMJJsbGx6BlIYKBzIIg3aG4dOXLkf7/44mhjI4Aoz/Bd8Og+QKD+EVJGjRpVNB3nRUeCBZ0DQXxDix1HGht/+vHH045pS7yahGBJw2OfVeh7qwoKCoqm47zoiDSgcyCIKGi2ve6668rLy3fu2tV+4YLfBQ9P05CEuLfKMYkIegYiFegcCOIHNPMOHDhw448/1lRXA0hd8JAaOi86ljQQaUHnQBC/oVl43Nixn3/+eePRoyBdwUNC+POiSyqMIOgcCBIotPhx8ODB/23Zcub0aQkKHhKB86IjoQadA0ECh+blnJycHTt2lJeXX2hvD6bgETz6WP30oumFVxTivOhISEHnQJBgoTn6kksu+eGHH6prarq3+l/wCPI0cF50RDbQORBEGhzTlnz2+eeNR44IzEoi+oZzf8F50RGZQedAEMlwTFuyf//+zZs3X2hv9zbRoVvBI4CIOIkIEhbQORBEYmgGLygo2L59+46dO0U9d9b/3io6icj0GdOXLV+GnoHIDDoHgoQEms2HDRv21ddf1x086OO5s36C86Ij4QWdA0FCCC1+NDQ0bN68ueX4cU8Fj+5VEeC86AgL4DMBESS0cByXmZl57bXXjrrsMq1O59ju8tBAn75hMpluvfXWB37zQFZWFnoGEl6wzYEgckBz/aBBgzb9/HP53r1+jcrFedER1kDnQBD5oHl/9KhRn3zyyZHGRteChxA4LzrCIOgcCCI3juLH999/f/r0aUf7w2XGQ8ckIljSQFgD6xwIEgZo8ePGG28cNmyYTqvlFzwAQB+rv/XWWx97/LGCggL0DIRBsM2BIGGDusLw4cO/++67qqoquhHnRUfYh+C3E0HCDr2B/NSpU8ePH8/JycFfJcI4/x/AT6kL/qQfqgAAAABJRU5ErkJggg==;strokeColor=none;labelBackgroundColor=none;rounded=0;html=1;whiteSpace=wrap;fontSize=15;" vertex="1" parent="1">
          <mxGeometry x="120" y="90" width="138.08" height="90" as="geometry" />
        </mxCell>
      </root>
    </mxGraphModel>
  </diagram>
</mxfile>
